<?xml version="1.0" standalone="no"?>
<!DOCTYPE svg PUBLIC "-//W3C//DTD SVG 1.1//EN" "http://www.w3.org/Graphics/SVG/1.1/DTD/svg11.dtd" >
<svg xmlns="http://www.w3.org/2000/svg">
<metadata></metadata>
<defs>
<font id="kg_feeling_22regular" horiz-adv-x="1116" >
<font-face units-per-em="2048" ascent="1638" descent="-410" />
<missing-glyph horiz-adv-x="452" />
<glyph horiz-adv-x="2048" />
<glyph horiz-adv-x="2048" />
<glyph unicode="&#xd;" horiz-adv-x="1166" />
<glyph unicode=" "  horiz-adv-x="452" />
<glyph unicode="&#x09;" horiz-adv-x="452" />
<glyph unicode="&#xa0;" horiz-adv-x="452" />
<glyph unicode="!" horiz-adv-x="390" d="M44 1642q-2 18 19 34t49 22t53 0t31 -32q10 -44 21 -151t21 -243t20 -283t18 -271t12 -208t4 -94q-2 -30 -27 -47t-54 -18t-53 11t-24 40q-6 80 -13 182t-13 213t-13 228t-14 228t-17 211t-20 178zM126 86q0 48 34 68t75 19t75 -21t34 -54q0 -50 -34 -75t-75 -26t-75 21 t-34 68z" />
<glyph unicode="&#x22;" horiz-adv-x="620" d="M82 1270q-4 34 15 52t44 21t48 -8t27 -35q4 -40 9 -74t10 -67t10 -69t11 -80q2 -18 -15 -34t-40 -21t-46 4t-35 41q0 6 -2 19t-7 42t-13 79t-16 130zM354 1314q-4 34 15 52t44 21t48 -8t27 -35q4 -40 9 -74t10 -67t10 -69t11 -80q2 -18 -15 -34t-40 -21t-46 4t-35 41 q0 6 -2 19t-7 42t-13 79t-16 130z" />
<glyph unicode="#" horiz-adv-x="952" d="M76 923q-2 23 8 46t34 29l124 12l-16 134q2 28 21 40t42 13t42 -9t25 -24l16 -142l124 14l-16 132q2 28 21 40t42 13t42 -8t25 -23l16 -142l168 18q28 -4 39 -23t11 -41t-10 -42t-24 -24l-168 -18l16 -122l152 16q28 -4 39 -23t11 -41t-10 -42t-24 -24l-152 -16l16 -136 q2 -20 -15 -33t-41 -15t-46 7t-30 33l-16 130l-122 -12l16 -134q2 -20 -15 -33t-41 -16t-46 6t-30 33l-16 130l-150 -14q-20 -2 -32 16t-14 41t8 46t34 29l138 14l-14 122l-136 -14q-20 -2 -32 16t-14 41zM388 892l16 -122l122 12l-14 124z" />
<glyph unicode="$" horiz-adv-x="1164" d="M88 1335q10 87 55 161t125 126t200 72l-12 164q-2 32 19 51t48 22t51 -10t28 -45l14 -174q62 -4 128 -27t125 -60t107 -83t74 -94q10 -28 -7 -49t-45 -32t-56 -9t-38 24q-50 70 -124 118t-152 58l66 -806q62 -40 120 -84t106 -96t84 -114t54 -138q16 -62 10 -127 t-37 -123t-90 -103t-149 -65q-20 -4 -28 -6l12 -146q-4 -26 -30 -36t-56 -7t-54 18t-22 39l-10 134q-66 12 -126 44t-107 82t-79 120t-40 160q-4 32 19 46t52 12t53 -19t24 -43q-2 -76 48 -150t144 -106l-48 636q-64 40 -129 81t-119 87q-76 66 -126 150t-71 172t-11 175z M228 1320q-12 -82 24 -173t114 -167q36 -36 78 -69t86 -63l-52 696q-114 -18 -176 -80t-74 -144zM710 560l42 -538q98 16 142 83t24 161q-22 96 -77 166t-131 128z" />
<glyph unicode="%" horiz-adv-x="1308" d="M84 1153q12 69 62 145t124 136t163 95t177 21q58 -10 101 -3t79 27t71 50t81 70q60 54 103 48t69 -39t33 -80t-3 -73q-78 -198 -163 -380t-171 -364t-168 -369t-152 -395q10 -2 90 24t224 78q14 110 45 211t79 169t110 91t136 -19q56 -32 77 -88t13 -122t-40 -133 t-84 -121t-119 -89t-143 -35l-28 -8t-69 -21t-89 -27t-89 -27t-69 -21l-28 -8q-50 -26 -93 -21t-68 34t-29 75t24 100q28 82 79 202t114 258t131 286t131 286t114 257t81 201q-54 -52 -98 -81t-83 -45t-75 -23t-76 -15q-40 -132 -97 -219t-116 -139t-114 -72t-91 -14 q-98 12 -133 65t-23 122zM217 1147q-11 -33 13 -45q32 -16 77 3t85 59t69 93t29 105q0 32 -26 29t-62 -28t-76 -65t-69 -79t-40 -72zM959 225q-1 -25 9 -29q22 -12 50 4t56 47t50 71t29 77t-3 64t-48 35q-20 4 -41 -16t-39 -51t-32 -70t-22 -73t-9 -59z" />
<glyph unicode="&#x26;" horiz-adv-x="878" d="M99 511q7 53 19 95q12 58 41 108t67 85t81 53t81 12l-32 110q-2 34 15 50t40 19t45 -5t30 -26l96 -316l126 56q30 10 51 -4t30 -37t5 -47t-24 -32l-152 -76l40 -132q12 -18 -2 -36t-37 -27t-49 -7t-38 24l-38 120q-44 -20 -67 -34t-41 -26t-39 -25t-61 -29 q-84 -34 -125 -19t-55 54t-7 92zM226 502l230 142l-32 82q-46 20 -85 -1t-65 -60t-39 -86t-9 -77z" />
<glyph unicode="'" horiz-adv-x="358" d="M82 1010q6 44 11 80t10 69t10 67t9 74q2 24 25 35t49 8t45 -21t15 -52q-10 -80 -17 -130t-12 -79t-7 -42t-2 -19q-12 -32 -35 -41t-46 -4t-40 21t-15 34z" />
<glyph unicode="(" horiz-adv-x="730" d="M69 1034q-1 162 18 308t60 267t103 199q22 18 45 17t41 -14t28 -35t4 -46q-52 -52 -87 -154t-52 -232t-16 -280t19 -300t54 -290t91 -251t127 -184t164 -87q28 -4 36 -29t2 -51t-23 -46t-39 -14q-114 28 -206 112t-160 206t-114 272t-70 310t-25 322z" />
<glyph unicode=")" horiz-adv-x="658" d="M-42 -128q-6 26 2 51t36 29q92 14 164 87t127 184t91 251t54 290t19 300t-16 280t-52 232t-87 154q-6 24 4 46t28 35t41 14t45 -17q62 -78 103 -199t60 -267t18 -308t-25 -322t-70 -310t-114 -272t-160 -206t-206 -112q-22 -6 -39 14t-23 46z" />
<glyph unicode="*" horiz-adv-x="1494" d="M134 784q2 28 17 49t35 25l362 98l-294 258q-16 40 -3 66t37 40t51 14t41 -14l312 -274l178 422q32 36 61 39t48 -11t26 -38t-1 -44l-160 -376l490 132q32 -4 48 -28t17 -52t-12 -52t-37 -28l-470 -132l308 -270q16 -28 6 -52t-33 -40t-51 -20t-48 12l-324 280l-190 -446 q-22 -28 -48 -33t-47 7t-32 35t-1 49l166 394l-380 -106q-42 14 -58 41t-14 55z" />
<glyph unicode="+" horiz-adv-x="778" d="M76 739q-2 23 8 46t34 29l184 12l-16 228q8 32 31 42t46 5t39 -20t12 -31l14 -208l214 16q28 -4 39 -23t11 -41t-10 -42t-24 -24l-222 -32l26 -266q2 -16 -18 -28t-45 -14t-47 8t-24 38l-12 252q-44 6 -97 -2t-97 -2q-20 -2 -32 16t-14 41z" />
<glyph unicode="," horiz-adv-x="474" d="M80 -281q-8 27 14 53q42 50 63 93t25 88t-7 97t-33 122q-14 30 4 58t47 41t60 5t43 -52q14 -50 29 -116t14 -138t-25 -145t-84 -139q-28 -30 -61 -29t-57 18t-32 44z" />
<glyph unicode="-" horiz-adv-x="768" d="M76 671q-2 23 8 46t34 29l524 44q28 -4 39 -23t11 -41t-10 -42t-24 -24l-536 -46q-20 -2 -32 16t-14 41z" />
<glyph unicode="." horiz-adv-x="446" d="M94 74q0 50 34 75t75 26t75 -21t34 -68q0 -48 -34 -68t-75 -19t-75 21t-34 54z" />
<glyph unicode="/" horiz-adv-x="1146" d="M58 17q-12 25 2 45l908 1644q16 28 44 33t52 -7t37 -35t-1 -53l-910 -1680q-16 -20 -44 -14t-52 24t-36 43z" />
<glyph unicode="0" horiz-adv-x="938" d="M50 532q-14 166 5 343t69 353t130 322q-22 -4 -40 -8t-42 -14q-12 0 -20 21t-10 46t3 46t21 23q136 34 242 15t188 -76t139 -147t93 -197t54 -226t20 -235q2 -144 -20 -292t-76 -268t-143 -198t-217 -80q-120 -2 -203 74t-131 204t-62 294zM187 664q-1 -164 29 -292 t94 -205t170 -69q78 6 133 74t90 171t48 229t7 250q-6 112 -28 230t-64 220t-106 177t-152 99q-66 -98 -116 -245t-77 -311t-28 -328z" />
<glyph unicode="1" horiz-adv-x="336" d="M28 1624q-2 32 19 51t48 22t51 -10t28 -45l122 -1680q-4 -26 -30 -36t-56 -7t-54 18t-22 39z" />
<glyph unicode="2" horiz-adv-x="1008" d="M53 1245q-3 31 25 59t80 77t117 102t135 102t137 79t124 34t95 -34q64 -68 60 -175t-51 -239t-124 -280t-156 -294t-149 -284t-102 -248q74 4 153 21t161 40l164 46t160 37q30 6 53 -12t33 -43t2 -50t-38 -33q-154 -42 -262 -70t-190 -46t-149 -28t-139 -16 q-62 -4 -86 21t-26 64t11 84t29 81q28 68 90 184t137 253t149 281t126 267t68 209t-24 108q-28 14 -86 -9t-130 -73t-148 -121t-136 -151q-20 -26 -47 -22t-45 26t-21 53z" />
<glyph unicode="3" horiz-adv-x="1120" d="M68 1308q26 64 79 130t120 121t143 94t149 50t136 -11t107 -88q52 -80 61 -160t-12 -155t-63 -144t-93 -125t-104 -99t-93 -67q78 14 175 16t184 -24t153 -86t82 -166q18 -114 -18 -219t-106 -188t-167 -140t-204 -75t-216 10t-201 114q-24 34 -17 64t28 50t47 27t40 -5 q46 -72 118 -101t152 -21t158 47t135 101t84 144t7 174q-12 50 -54 86t-106 54t-147 16t-177 -26q-44 -8 -73 17t-42 63t-7 77t32 61q60 48 131 117t127 146t84 156t2 145q-24 60 -82 74t-134 -19t-161 -117t-163 -222q-10 -14 -28 -15t-35 12t-28 39t-3 68z" />
<glyph unicode="4" horiz-adv-x="1146" d="M53 511q-5 41 6 86t35 77q66 92 121 166t102 141t90 132t84 140t83 165t88 206q0 36 31 63t68 38t67 5t30 -32q4 -68 7 -126t4 -115t3 -120t3 -142t3 -181t6 -238l188 44q24 12 38 -7t16 -47t-10 -55t-40 -31q-4 -4 -31 -12t-59 -16t-58 -15t-30 -13q8 -172 9 -291 t1 -196t1 -116t5 -51q0 -22 -24 -39t-52 -23t-51 2t-25 38q0 24 -1 73t-1 112t-1 132t-1 131t-1 111t-1 71q-132 -30 -228 -53t-167 -43t-124 -35t-103 -27q-36 -4 -56 23t-25 68zM196 588q28 0 101 18t158 43t165 51t124 42l2 786q-10 -80 -55 -177t-104 -196t-127 -195 t-125 -173t-96 -131t-43 -68z" />
<glyph unicode="5" horiz-adv-x="1154" d="M60 948q0 166 26 289t84 202t158 109q58 20 125 37t136 35t137 38t130 46q36 14 59 -5t30 -51t-5 -65t-44 -43l-546 -162q-38 -18 -64 -66t-42 -112t-23 -140t-9 -149t0 -139t6 -112q6 -62 66 -56q38 4 82 31t93 66t104 85t112 86t117 68t122 34q50 4 88 -13t65 -49 t43 -75t20 -93q-8 -114 -58 -239t-121 -243t-151 -223t-148 -179q-14 -24 -44 -25t-57 13t-40 40t9 54q150 156 254 307t157 275t52 208t-61 102q-30 8 -75 -17t-100 -69t-119 -99t-132 -104t-139 -84t-139 -41q-20 -2 -44 8t-45 30t-36 50t-17 70q-16 204 -16 370z" />
<glyph unicode="6" horiz-adv-x="1004" d="M41 625q-5 215 62 480t211 565q12 22 39 18t51 -22t36 -43t-6 -47q-66 -106 -118 -237t-85 -270t-46 -277t1 -259t56 -215t118 -146q12 150 51 292t99 246t138 153t172 17q66 -24 105 -93t47 -161t-17 -197t-85 -199t-158 -168t-236 -106q0 -22 -27 -30t-56 -2t-50 27 t-11 57q-138 86 -212 244t-79 373zM490 126q62 0 120 41t104 104t78 138t42 142t-6 117t-64 64q-36 10 -71 -24t-66 -92t-58 -132t-46 -144t-28 -129t-5 -85z" />
<glyph unicode="7" horiz-adv-x="1048" d="M41 1342q-7 30 1 55t28 23l774 282q16 6 45 0t56 -19t48 -34t23 -45q6 -92 4 -219t-8 -272t-15 -300t-19 -300t-19 -271t-15 -216q-16 -34 -47 -42t-61 -1t-49 25t-13 38q8 78 26 187t35 280t26 419t1 604q-108 -30 -185 -55t-136 -46t-105 -40t-90 -38t-94 -40t-114 -45 q-44 -6 -67 17t-30 53z" />
<glyph unicode="8" horiz-adv-x="1192" d="M40 1305q30 105 98 186t161 136t188 76t178 6t133 -73q72 -84 77 -166t-30 -165t-100 -168t-135 -173q176 30 291 -3t175 -106t70 -175t-25 -209t-111 -210t-186 -179q-172 -116 -305 -140t-223 18t-135 137t-41 216t57 255t161 256q-68 6 -119 32t-87 62t-58 78t-32 82 q-32 122 -2 227zM170 1114q16 -54 49 -85t73 -45t82 -15t74 3q30 26 67 69t73 93t67 105t51 105t23 94t-15 72q-36 54 -96 65t-128 -9t-134 -66t-114 -108t-71 -134t-1 -144zM274 230q18 -76 73 -113t146 -25t219 94q108 70 175 156t91 171t7 159t-77 119t-161 53t-243 -40 q-94 -96 -151 -201t-77 -201t-2 -172z" />
<glyph unicode="9" horiz-adv-x="1090" d="M52 1031q-12 75 7 152t65 151t109 138t137 113t152 76t153 28t139 -33q8 8 -1 27t-5 45q14 20 41 27t54 4t47 -17t20 -38q10 -156 24 -347t28 -407t24 -450t12 -476q0 -20 -25 -35t-54 -20t-54 5t-25 40q8 126 10 301t-3 364t-16 374t-29 333q-8 -42 -50 -113t-106 -148 t-144 -149t-160 -113t-155 -40t-131 69q-52 64 -64 139zM190 1145q-12 -75 22 -141q26 -50 96 -35t154 83t166 185t132 273q-52 38 -122 34t-143 -38t-139 -91t-110 -126t-56 -144z" />
<glyph unicode=":" horiz-adv-x="458" d="M80 970q0 50 34 75t75 26t75 -21t34 -68q0 -48 -34 -68t-75 -19t-75 21t-34 54zM122 446q0 50 34 75t75 26t75 -21t34 -68q0 -48 -34 -68t-75 -19t-75 21t-34 54z" />
<glyph unicode=";" horiz-adv-x="492" d="M80 -281q-8 27 14 53q42 50 63 93t25 88t-7 97t-33 122q-14 30 4 58t47 41t60 5t43 -52q14 -50 29 -116t14 -138t-25 -145t-84 -139q-28 -30 -61 -29t-57 18t-32 44zM100 596q0 50 34 75t75 26t75 -21t34 -68q0 -48 -34 -68t-75 -19t-75 21t-34 54z" />
<glyph unicode="&#x3c;" horiz-adv-x="946" d="M101 639q-7 27 2 58t41 59q62 50 102 81t84 66t106 84t168 135q38 24 66 19t43 -24t15 -42t-18 -35l-448 -378l540 -220q30 -18 27 -43t-21 -46t-44 -32t-44 1l-546 244q-28 6 -47 26t-26 47z" />
<glyph unicode="=" horiz-adv-x="808" d="M76 777q-2 23 8 46t34 29l524 44q28 -4 39 -23t11 -41t-10 -42t-24 -24l-536 -46q-20 -2 -32 16t-14 41zM92 523q-2 23 8 46t34 29l524 44q28 -4 39 -23t11 -41t-10 -42t-24 -24l-536 -46q-20 -2 -32 16t-14 41z" />
<glyph unicode="&#x3e;" horiz-adv-x="866" d="M53 399q-3 25 27 43l540 220l-448 378q-18 12 -18 35t15 42t43 24t66 -19q106 -86 168 -135t106 -84t84 -66t102 -81q32 -28 41 -59t2 -58t-27 -47t-46 -26l-546 -244q-18 -12 -44 -1t-44 32t-21 46z" />
<glyph unicode="?" horiz-adv-x="956" d="M36 1233q-8 23 4 39q44 60 109 128t139 128t154 103t157 56t147 -12t124 -105q44 -66 43 -157t-35 -192t-92 -207t-127 -201t-141 -174t-134 -127q-24 -12 -47 -4t-38 25t-16 41t17 46q50 44 113 113t124 151t114 170t85 170t38 153t-28 117q-40 54 -93 61t-111 -17 t-117 -70t-110 -98t-92 -101t-61 -79q-24 -22 -51 -18t-47 21t-28 40zM302 86q0 48 34 68t75 19t75 -21t34 -54q0 -50 -34 -75t-75 -26t-75 21t-34 68z" />
<glyph unicode="@" horiz-adv-x="1506" d="M80 734q0 72 14 169t46 201t86 206t133 182t187 130t248 50q100 0 186 -52t155 -137t119 -194t77 -222t30 -221t-24 -192t-83 -136t-148 -50q-54 0 -88 18t-55 44t-32 58t-19 60q-12 -36 -29 -90t-41 -114t-55 -118t-70 -100t-87 -59t-104 5q-54 20 -73 95t-11 179 t40 225t81 233t111 203t130 137q46 30 85 22t67 -37t44 -68t16 -69q-2 -160 4 -255t21 -145t39 -62t56 -4q44 16 59 91t3 178t-49 217t-95 208t-136 152t-172 48q-118 -14 -209 -78t-155 -169t-102 -246t-48 -311q-8 -140 21 -279t91 -247t155 -171t214 -52t268 113t315 324 q14 36 41 43t48 -10t29 -56t-14 -99q-200 -232 -376 -342t-322 -123t-262 58t-196 198t-122 299t-42 362zM571 399q5 -33 29 -29q28 6 58 40t63 117t70 225t77 364q-58 -72 -107 -157t-87 -169t-63 -162t-35 -137t-5 -92z" />
<glyph unicode="A" d="M52 -28l124 688l-68 -18q-26 -14 -38 7t-10 52t18 61t46 34l74 18l162 788q4 32 31 56t60 34q18 6 36 6q14 0 28 -4q31 -8 41 -40q38 -124 79 -237t76 -204t62 -158t39 -97q12 4 46 12t72 17t72 17t48 10q36 2 57 -14t28 -40q3 -10 3 -21q0 -13 -5 -26q-9 -23 -33 -35 l-240 -60l250 -670q18 -24 2 -49t-44 -39t-56 -12t-32 30l-264 708l-392 -92l-128 -714q-2 -20 -23 -39t-47 -27q-10 -3 -20 -3q-15 0 -28 7q-22 12 -26 54zM342 846l326 78l-196 544z" />
<glyph unicode="B" horiz-adv-x="1238" d="M72 1578q6 20 23 34t38 18t42 -4t31 -32l12 -182q22 54 67 106t101 93t119 68t121 30h13q50 0 94 -20q49 -23 79 -81q43 -84 42 -185v-26q-6 -117 -46 -234t-103 -220t-129 -165q90 36 197 60q73 16 141 16q31 0 60 -3q94 -11 161 -69t77 -184q1 -18 1 -35 q0 -102 -49 -202q-58 -117 -170 -199t-272 -114q-66 -13 -137 -13q-102 0 -215 27l26 -108q10 -18 -10 -38t-49 -29q-14 -5 -29 -5l-29 5q-29 9 -37 45v-1q1 0 -5 65q-7 74 -20 204t-31 302t-38 358l-40 372t-36 346zM240 1160q0 -4 4 -41t8 -92t10 -118t11 -118t8 -92 t5 -39q50 38 109 101t115 142t104 166t77 171t33 161v18q0 66 -26 115q-26 47 -81 47h-7q-60 -3 -130 -53t-136 -143t-104 -225zM324 508l38 -294q123 -42 230 -42q35 0 68 4q136 18 232 82t143 161q34 70 34 143q0 28 -5 56q-10 68 -61 93q-46 22 -108 22h-15 q-72 -3 -157 -29t-164 -61t-142 -72t-93 -63z" />
<glyph unicode="C" horiz-adv-x="1010" d="M39 849q-2 47 -2 93q0 112 12 220q17 152 58 270t108 189q65 69 156 69h5q36 -2 69 -25t60 -60t48 -83t35 -92t22 -89t8 -73q0 -28 -20 -51t-46 -35t-48 -7t-24 33q-18 168 -46 245t-44 87q-11 3 -21 3q-37 0 -67 -40q-38 -51 -64 -146t-38 -222q-9 -95 -9 -196 q0 -33 1 -67q4 -136 23 -270t56 -243t92 -182t131 -85q16 -3 32 -3q45 0 91 21q63 28 112 94t79 168q28 96 28 221v17q0 22 22 30t48 4t48 -20t22 -44q-2 -152 -44 -275t-113 -207t-164 -124q-69 -30 -144 -30q-26 0 -53 4q-96 12 -170 94t-127 208t-84 282t-38 317z" />
<glyph unicode="D" horiz-adv-x="1080" d="M32 1584q6 60 49 60t95 -32q122 70 241 70q28 0 55 -4q146 -20 264 -116t199 -254t103 -350q9 -82 9 -159q0 -132 -26 -252q-41 -189 -123 -328t-194 -221t-228 -92q-11 -2 -21 -2q-29 0 -45 18q-22 24 -25 56t12 58t47 24q126 22 218 101t149 202t78 282q11 81 11 169 q0 83 -10 172q-12 104 -49 197t-92 166t-123 122t-139 67q-35 9 -69 9l-73 -10q-71 -19 -133 -81q2 -82 8 -187t17 -224t24 -243t29 -241t34 -222t38 -185q14 -22 -9 -41t-56 -27q-19 -5 -37 -5q-14 0 -27 3q-31 6 -33 34q-10 66 -24 185t-30 263t-32 299t-32 295t-29 253 t-21 171z" />
<glyph unicode="E" horiz-adv-x="1100" d="M52 1398q6 32 27 50t55 18t76 -24q262 102 428 165t254 103q18 9 35 9q14 0 27 -7q28 -14 41 -39t10 -52t-33 -37q-116 -38 -240 -87t-233 -93t-190 -77t-107 -41v-126t2 -147t9 -145t21 -122q36 2 86 40t98 86t89 94t61 62q18 16 41 13t40 -17t24 -35t-5 -43 q-50 -74 -109 -135t-116 -108t-108 -80t-83 -53q4 -16 8 -54t10 -86t15 -101t23 -99t32 -78t44 -40q22 -7 46 -7q27 0 56 9q54 16 109 52t110 88t103 109t89 114t69 105q18 18 38 13t37 -23t24 -43q3 -12 3 -23q0 -13 -4 -26q-26 -56 -73 -117t-106 -121t-126 -115t-134 -98 t-128 -70t-107 -31q-7 -1 -13 -1q-56 0 -98 48q-47 53 -80 144t-55 210t-35 247t-20 253t-11 229t-8 176t-10 92q-10 28 -10 52q0 10 2 20z" />
<glyph unicode="F" horiz-adv-x="1066" d="M24 1502q-1 4 -1 8q0 19 15 33q18 17 43 23t48 -1t29 -31q2 -4 4 -18t5 -29t7 -28t8 -15q116 52 215 93t192 70t183 48t188 25q22 0 39 -18t24 -40q5 -17 5 -34v-10q-2 -22 -20 -30q-54 -10 -140 -23t-193 -39t-228 -72t-245 -122q0 -54 10 -138t23 -174t27 -174t24 -138 q104 14 183 36t144 52t124 70t125 88q26 10 42 -7t22 -44t1 -55t-25 -38q-82 -60 -158 -103t-148 -72t-141 -48t-139 -33q4 -52 13 -127t21 -151t24 -141t22 -97q6 -28 -14 -44t-47 -21q-14 -2 -26.5 -2.5t-24.5 2.5q-24 5 -26 17q-30 164 -60 365t-60 410t-59 411t-55 366z " />
<glyph unicode="G" horiz-adv-x="1068" d="M52 552q-8 95 -8 183q0 164 27 303q41 214 120 365t184 236t213 101q10 3 20 3q20 0 36 -12q24 -17 33 -43t2 -52t-33 -36q-92 -12 -165 -62t-128 -128t-92 -178t-56 -211t-22 -228q-1 -23 -1 -47q0 -92 10 -180q12 -104 46 -208t84 -185t115 -128q56 -40 116 -40 q11 0 21 1q86 12 154 66t111 147t60 222q9 66 9 143q0 72 -8 152q-8 88 -39 138t-74 68q-30 12 -65 12q-15 0 -32 -2q-54 -8 -109 -35t-107 -67t-94 -86q-18 -8 -39 0t-36 24t-20 36t11 36q136 140 262 196q95 42 176 42q26 0 50 -4q100 -18 167 -103t87 -225 q15 -109 15 -204.5t-15 -177.5q-30 -164 -96 -275t-156 -172t-180 -73q-24 -3 -48 -3q-90 0 -168 49q-98 62 -170 166t-116 232t-52 244z" />
<glyph unicode="H" horiz-adv-x="1172" d="M36 1624v6q0 32 21 47q23 17 52 19t56 -12t33 -40q0 -42 7 -125t16 -181t18 -198t15 -176q26 0 93 14t149 35t165 44t141 41q0 60 -7 131t-17 145t-21 145t-17 129q4 32 23 49t42 20q6 1 12 1q18 0 36 -7q25 -9 41 -25q18 -200 36 -342t32 -196l82 18q20 6 34 -12t19 -44 t-2 -51t-31 -31q-12 -4 -43 -11t-45 -27q16 -98 37 -234l42 -272t40 -254t35 -178q1 -7 1 -14q0 -26 -18 -44q-23 -22 -54 -29t-58 4t-27 45l-142 946q-38 -14 -112 -30t-158 -35t-167 -42t-139 -51q-1 -10 -1 -24q0 -28 3 -70q4 -64 10 -143t14 -167t18 -167t18 -142 t16 -93q2 -32 -21 -50t-51 -22q-8 -1 -16 -1q-19 0 -36 7q-24 10 -24 34q0 10 -5 69t-12 143t-16 180t-16 180t-12 143t-5 71q-44 12 -61 35t-16 49t18 51t39 37q1 31 1 63q0 57 -4 120q-7 99 -18 196t-24 182t-19 141z" />
<glyph unicode="I" horiz-adv-x="338" d="M28 1624v5q0 28 19 46q21 19 48 22q5 1 10 1q21 0 41 -11q24 -13 28 -45l122 -1680q-4 -26 -30 -36q-20 -8 -42 -8q-7 0 -14 1q-30 3 -54 18t-22 39z" />
<glyph unicode="J" horiz-adv-x="750" d="M29 190q9 24 27 40t41 20t41 -12q28 -66 64 -113t104 -55q13 -2 26 -2q68 0 115 47q55 55 83 153t35 228q3 65 3 132.5t-3 137.5q-7 140 -26 280t-41 258t-45 202t-37 114q6 38 29 54t49 16t48 -12t24 -30q14 -38 37 -134t44 -227t37 -286t18 -309v-32q0 -137 -15 -265 q-17 -143 -62 -250t-123 -167q-67 -51 -165 -51q-16 0 -33 1q-36 2 -76 16t-77 40t-69 65t-52 93q-5 13 -5 25t4 23z" />
<glyph unicode="K" horiz-adv-x="1288" d="M44 1618q2 36 22 54t45 21q5 1 10 1q20 0 37 -10q22 -12 28 -32l66 -946q30 132 94 265t145 256t171 228t170 183q20 14 44 9t42 -22t26 -39t-4 -42q-26 -30 -78 -85t-113 -126t-125 -155t-117 -172t-86 -175t-33 -165q12 -34 70 -42q31 -4 69 -4q33 0 71 3q82 7 178 26 t184 41t157 41t97 29q26 0 41 -18t20 -42q2 -11 2 -21q0 -12 -3 -23q-6 -20 -18 -22q-56 -22 -140 -47t-181 -48t-197 -40t-190 -21q-24 -1 -47 -1q-62 0 -113 8q-70 11 -104 45q6 -58 8 -110t7 -114t15 -138t28 -180q6 -18 -15 -32t-51 -19q-12 -2 -24 -2q-17 0 -33 4 q-27 7 -29 33q-22 204 -40 401t-36 397t-35 409t-35 439z" />
<glyph unicode="L" horiz-adv-x="1062" d="M33 768v29q0 147 9 286q10 153 23 284t17 215q4 30 25 45t45 15t44 -12t24 -36v-25q0 -67 -8 -170q-10 -123 -19 -268t-10 -300v-15q0 -146 18 -277q19 -137 64 -244t129 -155q51 -29 101 -29q25 0 50 7q75 22 144 78t128 133t103 143q10 16 32 14t43 -14t35 -30 q9 -11 9 -22q0 -6 -3 -12q-48 -92 -127 -186t-176 -159t-205 -83q-26 -4 -51 -4q-82 0 -161 44q-108 62 -168 178t-87 262t-28 308z" />
<glyph unicode="M" horiz-adv-x="1936" d="M52 1578q2 38 26 66t59 39q23 7 47 7q13 0 27 -2q39 -6 73 -32q44 -68 93 -184t100 -250t105 -270t105 -245t100 -175q44 -59 83 -59q5 0 10 1q48 8 78 58t49 127t31 172t22 194t24 193t37 167t59 119t94 48h2q31 0 66 -57q36 -59 73 -158t77 -226t80 -263t82 -269 t83 -243t82 -187t81 -99q15 -9 15 -25q0 -6 -2 -13q-7 -26 -28 -48t-51 -30q-7 -2 -13 -2q-23 0 -43 22q-72 72 -134 203t-116 283t-98 308t-78 280t-57 198q-20 64 -31 64q-2 0 -4 -2q-10 -12 -18 -61t-16 -122t-18 -162t-26 -181t-41 -179t-62 -155t-88 -109t-119 -41 q-52 0 -104 44t-102 117t-98 168t-91 197t-82 205t-73 190t-61 151t-47 92q-1 -11 -1 -28q0 -42 7 -118q10 -106 27 -245t39 -296t43 -298t37 -250t22 -155q12 -24 -8 -46t-52 -32t-61 -4t-35 38z" />
<glyph unicode="N" horiz-adv-x="1346" d="M58 1566q2 34 27 51t55 18t59 -12t43 -37q38 -76 97 -209t129 -288t149 -315t158 -288t156 -206q72 -72 134 -73q5 0 9 1q44 4 67 59t28 144q2 32 2 67q0 63 -6 135q-9 113 -26 234t-40 240t-48 220t-47 174t-36 103q-4 15 -4 27q0 23 14 37q22 22 54 26q7 1 14 1 q25 0 49 -11q31 -14 37 -44q8 -26 28 -105t44 -190t48 -245t40 -272t18 -270v-26q0 -116 -16 -211q-18 -105 -63 -176t-123 -85q-19 -4 -39 -4q-56 0 -112 31q-75 41 -147 120t-139 188t-128 230t-115 243t-100 230t-82 192t-60 126v-29q0 -70 7 -178q9 -131 23 -284 t31 -312t32 -294t26 -227t13 -112q-10 -32 -36 -44q-22 -10 -47 -10h-8q-29 2 -50 14t-17 28q-6 60 -17 182t-23 276t-24 326t-21 332t-14 292q-4 94 -4 161q0 27 1 49z" />
<glyph unicode="O" horiz-adv-x="1028" d="M47 808q1 128 23 245t65 218t107 169q20 14 42 12t38 -16t23 -35t-1 -43q-48 -42 -81 -122t-52 -180t-22 -213q-1 -21 -1 -42q0 -91 11 -181q13 -110 42 -210t75 -173t108 -112q47 -30 105 -30q18 0 37 3q78 10 133 79t89 171t48 226q10 87 10 174q0 37 -2 74 q-4 96 -21 197t-48 193t-77 168t-110 123t-146 56q-15 2 -31 2q-70 0 -153 -33q-12 0 -20 21t-10 46t3 46t21 23q87 22 162 22q42 0 80 -7q106 -19 188 -76t139 -147t93 -197t54 -226t20 -235v-24q0 -132 -20 -268q-22 -148 -76 -268t-143 -198t-217 -80h-8q-91 0 -166 45 q-78 47 -136 129t-98 192t-59 232q-18 116 -18 237v13z" />
<glyph unicode="P" horiz-adv-x="1138" d="M26 1528q2 18 20 39t43 33t51 11t42 -23l6 -130q46 56 127 107t176 84t195 42q24 2 48 3q73 0 136 -22q84 -28 142 -99t72 -199q4 -34 4 -66q0 -96 -32 -178q-42 -110 -116 -196t-170 -151t-190 -109t-173 -69t-119 -33q0 -74 16 -166t37 -176t41 -148t30 -80 q-4 -28 -26 -48t-50 -29q-23 -7 -46 -7h-10q-28 2 -44 18q-40 242 -75 447t-62 393t-46 371t-27 381zM196 1135q6 -63 16 -129t22 -134t20 -136q11 -1 22 -1q57 0 125 17q81 20 161 58t154 93t128 124t83 150q22 60 22 125q0 22 -3 46q-8 80 -55 127t-115 65q-44 12 -94 12 q-28 0 -57 -4q-83 -10 -163 -47t-151 -100t-115 -147q-3 -28 -3 -57.5t3 -61.5z" />
<glyph unicode="Q" horiz-adv-x="1236" d="M35 981q17 197 83 389t188 344q13 9 28 9q7 0 14 -2q22 -7 39 -25t24 -43t-1 -47q-76 -82 -127 -195t-78 -239t-30 -260v-40q0 -113 14 -219q17 -125 53 -234t90 -186t125 -114q50 -26 105 -26q25 0 50 5q28 6 56 22t51 37t39 44t20 41q-104 110 -188 250t-146 276 q-12 32 2 55t36 33t45 5t29 -25q64 -134 131 -250t153 -212q30 98 43 214q9 79 9 160q0 37 -2 74q-6 96 -18 190t-36 174t-60 141t-87 92q-44 27 -100 27q-10 0 -19 -1q-68 -5 -154 -57q-12 -8 -23 7t-16 40t0 53t25 50q104 47 190 47h10q90 -3 159 -47t120 -121t85 -176 t51 -213t19 -230v-24q0 -124 -19 -249q-21 -137 -65 -253q52 -46 110 -84t128 -70q23 -21 23 -43q0 -24 -16 -42q-15 -17 -39 -24t-46 3q-52 22 -113 52t-117 80q-52 -86 -120 -133t-184 -53q-12 -1 -24 -1q-125 0 -225 78q-109 85 -180 229t-101 332q-19 120 -19 244 q0 70 6 141z" />
<glyph unicode="R" horiz-adv-x="1290" d="M26 1588q0 34 20 51t46 20t48 -8t28 -31q8 -72 11 -116t5 -71t4 -44t6 -35q74 68 158 130t168 110t165 80t151 41q24 3 47 3q43 0 80 -11q57 -17 93 -67q66 -94 66 -190t-46 -192t-128 -190t-180 -184t-202 -175t-194 -161q206 -64 411 -73q64 -3 127 -3q141 0 282 14 q34 6 48 -14q15 -22 15 -50q0 -24 -10 -45q-11 -23 -29 -23q-58 -18 -171 -19h-21q-104 0 -224 9q-132 10 -265 29t-235 41l74 -458q12 -26 -13 -41t-60 -20q-12 -2 -24 -2q-22 0 -42 6q-31 9 -31 31q-10 112 -23 251t-28 290t-31 308t-33 304t-33 277t-30 228zM228 1140 l38 -492q44 36 123 97t169 138t178 164t149 172t84 165q8 29 8 56q0 47 -25 86q-26 42 -93 42q-10 0 -21 -1q-84 -7 -189 -60t-218 -147t-203 -220z" />
<glyph unicode="S" horiz-adv-x="1080" d="M53 1188q-8 45 -8 90q0 50 10 98q19 92 79 164t162 117t252 47q66 0 136 -22t133 -59t114 -85t79 -100q10 -28 -7 -49t-45 -32t-56 -9t-38 24q-52 76 -133 125t-165 53q-24 2 -47 2q-127 0 -204 -48q-91 -56 -118 -144q-12 -39 -12 -81q0 -53 19 -110q34 -103 122 -189 q56 -54 123 -101t137 -92t139 -93t127 -104t102 -124t64 -156q12 -45 11 -92q0 -18 -1 -35q-6 -65 -37 -123t-90 -103t-149 -65q-50 -11 -102 -11q-38 0 -77 6q-91 15 -167 65t-129 135t-65 207q-4 32 19 46t52 12t53 -19t24 -43q0 -52 23 -104t69 -93t111 -62 q41 -13 90 -13q28 0 59 4q98 16 142 83q30 46 30 105q0 27 -6 56q-24 110 -94 187t-161 140t-189 120t-178 125q-82 70 -134 162t-69 188z" />
<glyph unicode="T" horiz-adv-x="1262" d="M9 1449q-1 6 -1 12q0 21 8 42q10 27 38 37l1112 158q32 0 47 -20t17 -46v-9q0 -21 -8 -41q-10 -24 -26 -30l-534 -62q4 -60 11 -170t15 -246t18 -287t20 -294t20 -266t20 -205q4 -18 -19 -35t-52 -23q-12 -2 -23 -2q-17 0 -32 5q-26 9 -30 39q-4 64 -10 173t-14 242 t-17 280t-18 288t-18 265t-15 210q-16 0 -52 -5t-81 -13t-94 -18t-94 -18t-81 -14t-52 -6q-24 -6 -38 13t-17 46z" />
<glyph unicode="U" horiz-adv-x="1172" d="M73 1138q-1 43 -1 85q0 84 4 163q6 118 16 206q4 36 29 48t53 9t49 -17t17 -32q-8 -52 -15 -142t-8 -202v-28q0 -100 6 -211q7 -127 23 -252t44 -238t70 -199t102 -137q58 -49 132 -49h6q98 2 168 83t117 209t72 292t31 332q2 53 2 105q0 113 -9 223q-13 160 -41 284 q6 26 30 40t52 16h8q23 0 43 -9q23 -11 25 -31q18 -122 28 -293q6 -101 6 -207q0 -74 -3 -151q-7 -187 -38 -371t-93 -331t-161 -242t-245 -101h-15q-87 0 -156 42q-75 46 -131 130t-96 198t-66 243t-39 267t-16 268z" />
<glyph unicode="V" horiz-adv-x="1278" d="M26 1494q-1 5 -1 10q0 24 16 46q19 26 44 39t49 10t32 -31q22 -70 60 -193t84 -268t96 -299t98 -287t87 -230t65 -129q14 60 34 163t48 233t63 278t81 297t102 292t126 263q8 20 33 26q9 2 19 2q15 0 30 -6q24 -10 41 -34q12 -16 12 -38q0 -10 -3 -22q-64 -100 -123 -248 t-110 -315t-94 -337t-74 -314t-52 -249t-27 -139q-8 -36 -37 -49q-22 -10 -48 -10q-8 0 -16 1q-35 4 -66 20t-41 36q-20 38 -53 119t-73 188t-85 232t-89 251t-85 245t-72 214t-50 157t-21 76z" />
<glyph unicode="W" horiz-adv-x="2142" d="M28 1564q-4 15 -4 28q0 24 12 43q18 29 46 43t59 9t45 -31q110 -330 173 -568t100 -409t58 -291t47 -212q46 84 90 186t87 205t84 199t78 168t70 112q26 32 51 32q6 0 12 -2q40 -14 83 -82t87 -164t88 -203t88 -197t86 -150t84 -60q10 0 33 59t53 156t65 222t70 258 t70 264t63 238t49 182t29 95q10 22 38 31q19 6 39 6q9 0 18 -1q29 -4 50 -22q16 -14 16 -36q0 -6 -1 -14q-60 -184 -112 -375t-98 -372t-90 -341t-89 -279t-94 -190t-105 -73h-5q-63 0 -120 50q-59 52 -110 135t-94 185t-80 197t-67 173t-52 114q-70 -150 -129 -291 t-108 -261t-89 -210t-72 -138q-4 -18 -34 -29t-65 -13h-11q-28 0 -53 8q-29 10 -31 34q-10 66 -27 172t-42 238t-59 283t-76 305t-93 304t-111 280z" />
<glyph unicode="X" horiz-adv-x="1378" d="M31 1535q13 25 36 42t50 22t39 -7q48 -82 95 -177t101 -198t117 -211t141 -214q46 84 107 200t121 237t112 236t80 197q10 18 34 24q11 3 22 3q13 0 27 -4q25 -7 45 -25t24 -44q-12 -38 -43 -107t-73 -154t-92 -182t-99 -190t-93 -178t-74 -147q62 -106 129 -200 t141 -157t152 -87q31 -10 63 -10q48 0 97 22q18 10 37 -2t31 -35q13 -25 13 -51q0 -24 -19 -42q-97 -44 -178 -44q-20 0 -38 3q-96 13 -181 74t-163 162t-162 223q-16 -26 -46 -76t-65 -112t-73 -130t-73 -130t-64 -112t-45 -76q-10 -17 -28 -17q-4 0 -8 1q-24 4 -46 18 t-36 34t-4 34q16 24 48 78t71 122t82 143t81 143t67 121t41 77q-16 22 -51 80t-79 136t-94 168t-100 177t-95 163t-79 126q-9 15 -9 30q0 12 6 23z" />
<glyph unicode="Y" horiz-adv-x="1184" d="M30 1448q-5 17 -5 32q0 18 8 34q15 28 38 44t45 19t28 -7q66 -80 141 -177t152 -193t153 -184t144 -150l270 830q14 42 45 53q15 5 29 5q16 0 31 -6q29 -12 47 -42q11 -18 11 -40q0 -14 -5 -30q-92 -246 -160 -445t-127 -389t-116 -394t-125 -458q-6 -16 -35 -27t-59 -11 t-53 13t-17 45l202 698q-144 188 -310 384t-332 396z" />
<glyph unicode="Z" horiz-adv-x="1548" d="M33 1464q3 24 25 24q14 -1 30 -1q58 0 130 12q92 15 193 38t200 50t180 50t134 37q46 12 60 12h3q38 -10 65 -34t43 -52t20 -54t-2 -42q-22 -76 -81 -201t-139 -271t-169 -298t-169 -281t-142 -221t-84 -116q12 -2 27 -2q42 0 109 13q90 17 201 49t231 75t226 90t186 93 t112 84q14 18 36 7t39 -36t23 -54q2 -7 2 -14q0 -19 -14 -31q-50 -46 -130 -94t-181 -94t-217 -87t-237 -74t-243 -55t-234 -30q-32 4 -55 25t-36 48t-14 55t11 50q10 18 63 95t130 194t168 261t176 295t154 296t103 265q-42 -14 -134 -41t-211 -57t-253 -58t-258 -44 q-22 -4 -42 20t-29 52q-7 21 -7 40q0 6 1 12z" />
<glyph unicode="[" horiz-adv-x="816" d="M83 659q1 175 6 344t13 312t16 249t12 154q8 86 30 129t65 61t114 22t177 12q32 0 57 -19t34 -44t0 -48t-41 -31q-10 -4 -54 -8t-90 -10q-64 -4 -95 -14t-43 -33t-14 -65t-6 -112q-6 -92 -14 -216t-14 -264t-10 -287t-3 -285t9 -259t25 -209t46 -134t71 -34l220 22 q30 4 49 -13t26 -42t1 -50t-28 -37q-24 -14 -42 -17t-48 -3t-79 -3t-135 -15q-34 -6 -70 4t-68 42t-56 90t-36 150q-16 144 -21 315t-4 346z" />
<glyph unicode="\" horiz-adv-x="1146" d="M59 1697q13 23 37 35t52 7t44 -33l908 -1644q14 -20 1 -45t-37 -43t-51 -24t-43 14l-910 1680q-14 30 -1 53z" />
<glyph unicode="]" horiz-adv-x="782" d="M76 -213q-6 25 1 50t26 42t49 13l220 -22q42 -12 71 34t46 134t25 209t9 259t-3 285t-10 287t-14 264t-14 216q-4 70 -6 112t-14 65t-43 33t-95 14q-46 6 -90 10t-54 8q-32 8 -41 31t0 48t33 44t58 19q106 -8 177 -12t114 -22t65 -61t30 -129q4 -48 12 -154t16 -249 t13 -312t6 -344t-4 -346t-21 -315q-12 -92 -36 -150t-56 -90t-68 -42t-70 -4q-86 12 -135 15t-79 3t-48 3t-42 17q-22 12 -28 37z" />
<glyph unicode="^" horiz-adv-x="746" d="M143 828q-11 24 3 40l150 244q10 26 32 43t50 21t57 -9t53 -47l130 -226q20 -40 9 -67t-33 -40t-48 -11t-36 20l-116 218l-120 -218q-22 -28 -49 -26t-49 18t-33 40z" />
<glyph unicode="_" horiz-adv-x="730" d="M60 19q-2 23 8 46t34 29l524 44q28 -4 39 -23t11 -41t-10 -42t-24 -24l-536 -46q-20 -2 -32 16t-14 41z" />
<glyph unicode="`" horiz-adv-x="360" d="M78 1382q-8 22 3 44t31 35t45 12t45 -27l82 -140q20 -40 8 -65t-36 -35t-51 -6t-37 22z" />
<glyph unicode="a" horiz-adv-x="994" d="M36 373q0 101 23 205t69 202t118 175t169 122q93 43 210 43h11q18 22 51 24h9q28 0 54 -10q30 -12 50 -31t16 -39q-14 -62 -30 -154t-24 -192q-7 -89 -7 -178v-22q1 -100 19 -177t58 -124q35 -42 93 -42q7 0 15 1q22 -4 31 -28q7 -18 7 -39q0 -7 -1 -14q-3 -29 -20 -53 t-47 -26q-78 10 -128 45t-81 83t-45 101t-20 101q-16 -90 -57 -162t-98 -119t-124 -68q-43 -13 -86 -13q-25 0 -49 4q-60 10 -102 64t-63 137t-21 184zM185 363v-8q0 -90 22 -153q23 -66 67 -72q8 -1 17 -1q63 0 119 67q64 76 111 201t72 281q22 134 22 263q0 21 -1 41 q-110 0 -190 -61t-133 -154t-79 -201t-27 -203z" />
<glyph unicode="b" horiz-adv-x="1098" d="M48 1612q0 28 24 47t52 25q10 2 19 2q17 0 33 -7q24 -11 24 -41q0 -72 5 -178t14 -230t23 -259t31 -263t38 -243t45 -201q-2 22 19 88t60 151t93 174t121 154t143 94q35 13 71 14q43 0 87 -19q78 -34 107 -100q22 -50 23 -111q0 -19 -3 -39q-9 -84 -50 -178t-103 -180 t-138 -158t-154 -114t-148 -50q-20 -2 -39 -2q-47 0 -86 14q-55 20 -95 66t-58 114q-40 150 -70 330t-49 370t-29 378t-10 352zM464 130q70 24 138 77t127 120t104 141t68 139q20 55 20 99q0 8 -1 15q-4 49 -40 69q-9 5 -19 5q-24 0 -54 -26q-43 -37 -89 -103t-91 -150 t-81 -163t-59 -140t-23 -83z" />
<glyph unicode="c" horiz-adv-x="908" d="M42 541q4 113 32 220t77 199t118 150t154 74q22 4 45 4q66 0 140 -34q32 -12 40 -42t0 -58t-27 -44t-39 -2q-55 24 -102 24q-19 0 -38 -4q-62 -14 -108 -61t-76 -119t-46 -154t-17 -166v-10q0 -78 14 -146q15 -72 43 -124t72 -68q36 -14 71 -14q19 0 37 4q52 12 97 47 t83 87t65 109t43 115t18 106q2 26 26 32t51 -4t48 -31t19 -47q-14 -116 -73 -234t-144 -205t-189 -124q-45 -16 -91 -16l-117 27q-82 38 -134 117t-74 179q-19 85 -19 179q0 17 1 34z" />
<glyph unicode="d" horiz-adv-x="1170" d="M38 220q4 96 58 196q44 82 119 156t168 120t197 53q12 1 24 1l184 -48q-2 130 -9 254t-14 242t-12 230q-3 62 -3 123q0 48 2 95q4 26 27 40t50 15h4q25 0 49 -13q26 -14 36 -42q2 -74 3 -180t2 -229t5 -255t13 -260t23 -243t36 -203t54 -142t74 -60q32 -8 44 -38 q10 -26 10 -52v-9q-2 -31 -16 -55q-11 -19 -29 -19q-4 0 -9 1q-54 18 -100 38t-84 67t-66 131t-48 228q-22 -54 -67 -110t-102 -107t-123 -93t-132 -66q-79 -28 -142 -28q-34 0 -64 8q-84 24 -125 91q-37 61 -37 146v17zM194 253q-4 -21 -4 -40q0 -32 12 -57q24 -47 73 -47 h2q51 1 113 34t129 89t123 115t93 112t41 83q-84 48 -164 50h-10q-74 0 -141 -28q-71 -30 -127 -82t-92 -112t-48 -117z" />
<glyph unicode="e" horiz-adv-x="878" d="M26 370q-1 9 -1 17q0 34 13 62q16 35 80 63q2 46 11 110t25 132t42 133t63 113t87 72q33 16 74 16q20 0 42 -4q96 -18 131 -70q30 -44 30 -101q0 -10 -1 -20q-6 -69 -44 -147t-91 -148t-112 -126t-105 -78q0 -54 7 -106t22 -93t39 -68t58 -31q11 -2 22 -2q55 0 104 42 q58 50 101 122t67 151t26 129q0 32 23 54t50 23t49 -20t22 -75q0 -52 -17 -117t-49 -131t-76 -128t-98 -108t-117 -71q-48 -19 -97 -19q-16 0 -32 2q-70 8 -114 40t-71 83t-42 118t-23 147q-31 -15 -55 -15q-5 0 -10 1q-27 4 -33 48zM264 582q78 68 128 130t71 111 q16 38 16 66q0 8 -1 15q-6 32 -40 40q-5 1 -9 1q-21 0 -44 -22q-27 -27 -51 -76t-43 -118t-27 -147z" />
<glyph unicode="f" horiz-adv-x="796" d="M10 610q0 22 12 26l242 90q-2 50 -9 124t-12 161q-4 73 -4 149v31q1 93 13 178t39 157t74 118t118 58q19 3 41 3q58 0 132 -23q24 -8 34 -34t7 -51t-15 -42t-30 -9q-52 24 -100 24q-14 0 -29 -2q-61 -10 -99 -91t-46 -248q-1 -30 -1 -65q0 -153 29 -384q8 0 33 7t59 18 t71 24t69 24t55 19t29 10q18 4 34 -12t24 -40q6 -19 6 -38v-9q-2 -23 -16 -33l-344 -130l92 -612q4 -16 -14 -28t-43 -17q-14 -3 -28 -3l-22 2q-25 4 -37 24q-16 92 -40 242t-46 344l-212 -70q-18 0 -33 19t-24 43t-9 46z" />
<glyph unicode="g" horiz-adv-x="868" d="M28 406q6 100 31 205t67 208t99 187t128 143t153 75h3l29 -16q16 -18 23 -43t3 -50t-28 -35q-86 -34 -150 -113t-109 -177t-70 -202t-31 -188q-2 -30 -2 -55q0 -48 7 -82q10 -48 35 -48q3 0 6 1q28 4 56 38t53 87t48 118t43 133t36 132t28 116q14 62 40 92t55 33t56 -19 t43 -60q24 -58 50 -153t49 -210t38 -243t17 -252v-27q0 -110 -14 -211q-16 -114 -55 -200t-106 -137t-167 -51q-54 0 -99 23t-77 59t-49 82t-17 92q2 24 20 39t41 21t42 2t25 -22q10 -20 19 -44t20 -46t27 -37t40 -17h9q76 0 118 63q45 67 63 175q14 85 14 183q0 28 -1 56 q-5 131 -22 255t-40 224t-43 144q-10 -56 -28 -125t-43 -140t-57 -138t-72 -117t-88 -77q-39 -22 -84 -22q-10 0 -20 1q-64 8 -101 59t-52 131q-11 57 -11 124q0 27 2 56z" />
<glyph unicode="h" horiz-adv-x="1108" d="M20 1580q-1 5 -1 10q0 28 19 53q22 29 51 42q20 9 39 9q9 0 17 -2q27 -6 33 -42q10 -192 27 -359t34 -315t29 -282t12 -260q24 158 77 259t116 157t127 73q40 11 73 11q20 0 37 -4q64 -14 105 -67t67 -125t41 -153t30 -149t34 -112t53 -44q26 0 39 -30q11 -24 11 -52 q0 -6 -1 -13q-3 -35 -22 -63q-17 -24 -48 -24h-9q-66 6 -106 57t-65 123t-41 156t-32 154t-38 117t-60 47q-56 0 -102 -36t-81 -94t-60 -131t-41 -149t-22 -146q-4 -52 -4 -94v-26q2 -34 -24 -54t-59 -23q-6 -1 -12 -1q-27 0 -53 11q-32 13 -42 43q0 2 -6 65t-16 167 t-22 237t-26 273t-27 276t-24 245t-18 181t-9 84z" />
<glyph unicode="i" horiz-adv-x="380" d="M20 1360q0 50 34 75t75 26h4q39 0 71 -21q34 -22 34 -68q0 -48 -34 -68q-32 -19 -71 -19h-4q-41 1 -75 21t-34 54zM72 1042q2 30 27 42q20 10 43 10q6 0 12 -1q30 -3 54 -21t24 -44q22 -242 47 -481l59 -478q0 -17 -20 -34q-22 -19 -51 -28q-20 -6 -39 -6q-8 0 -16 1 q-26 4 -32 30q-10 44 -21 134t-23 198t-24 224t-21 214t-14 164t-5 76z" />
<glyph unicode="j" horiz-adv-x="342" d="M-214 -276q0 32 23 45t52 12t52 -13t23 -28q2 -24 8 -55t14 -58t19 -44t27 -15q52 6 83 72t47 171t18 237v66q0 100 -4 204q-6 138 -18 271t-24 240t-24 177t-16 80q0 32 23 48t51 16t55 -15t33 -47q2 -24 13 -111t24 -213t25 -279t13 -308v-22q0 -143 -12 -277 q-13 -144 -48 -253t-96 -170q-52 -52 -129 -52q-13 0 -26 1q-32 4 -65 22t-61 55t-49 96t-31 147zM12 1358v6q0 45 31 70q33 26 73 28h7q36 0 68 -20q35 -22 37 -68v-5q0 -44 -31 -64t-70 -20h-4q-41 1 -76 20t-35 53z" />
<glyph unicode="k" horiz-adv-x="1144" d="M42 1636q4 20 28 35t53 19q11 1 21 1q18 0 33 -4q25 -7 31 -29l64 -958q108 118 238 235t280 231q18 16 41 11t39 -23t17 -43t-25 -51q-44 -44 -107 -96t-133 -115t-142 -135t-136 -156q68 -74 167 -111t203 -47q47 -5 93 -4q55 0 107 6q96 12 158 40q18 8 33 -9t20 -44 q2 -10 2 -19q0 -18 -6 -36q-9 -28 -39 -44q-44 -22 -110 -33t-142 -12h-17q-68 0 -139 7q-80 8 -152 26t-130 44t-90 60q2 -74 5 -124t6 -89t5 -72t4 -72t5 -88t5 -119q4 -34 -22 -51t-60 -17t-64 14t-30 44q-2 20 -1 35t2 41t1 72t-2 127t-9 207t-20 312t-34 440t-51 594z " />
<glyph unicode="l" horiz-adv-x="408" d="M40 1624q0 32 22 49t50 20q6 1 12 1q21 0 39 -9q23 -11 27 -33q12 -180 22 -370t28 -393t48 -419t78 -446q0 -26 -23 -43t-52 -23q-13 -3 -27 -3q-15 0 -30 4q-28 7 -38 29q-4 8 -14 73t-22 168t-25 234t-27 272t-26 281t-21 261t-15 212t-6 135z" />
<glyph unicode="m" horiz-adv-x="1800" d="M26 1030q-1 5 -1 9q0 26 21 45q24 22 56 28q10 2 19 2q22 0 43 -10q30 -14 36 -56q8 -112 17 -219t18 -215t20 -220t25 -238q-1 14 -1 36q0 32 2 80q3 80 12 180t27 206t46 193t68 143q39 54 90 54h4q66 0 113 -53t79 -136t53 -184t37 -196t29 -173t31 -114q28 18 50 82 t44 151t50 182t67 175t94 130q53 48 127 48h6q80 -4 127 -59t74 -138t43 -180t35 -182t48 -147t85 -72q26 4 43 -24t19 -62v-7q0 -30 -15 -54t-49 -24q-5 0 -10 1q-74 0 -122 58t-81 145t-56 187t-46 185t-50 139q-25 50 -62 50h-5q-34 0 -60 -41t-48 -104t-42 -142 t-41 -157t-45 -145t-52 -109q-28 -40 -71 -60q-41 -19 -80 -19h-4q-41 1 -73 24t-40 69q-26 136 -51 272t-49 244t-47 172q-20 55 -41 55q-3 0 -6 -1q-24 -10 -41 -61t-30 -126t-22 -166t-18 -183t-20 -178t-25 -150q-2 -16 -30 -30t-64 -19q-12 -2 -24 -2q-24 0 -47 7 q-35 10 -51 40q-4 34 -16 118t-27 191t-31 227t-30 226t-23 188t-11 114z" />
<glyph unicode="n" horiz-adv-x="1290" d="M36 946q-6 18 -6 33q0 21 11 38q19 29 49 40q19 7 38 7q10 0 20 -2q28 -6 34 -32q12 -48 26 -137t28 -181t27 -165t23 -89q10 28 24 83t37 119t56 131t81 119t111 83q53 26 120 26q13 0 27 -1q90 -6 145 -62t91 -137t57 -174t42 -175t47 -141t72 -71q34 -10 43 -43 q4 -16 4 -32q0 -18 -5 -36q-10 -35 -35 -60q-18 -18 -40 -18q-9 0 -19 3q-68 18 -110 84t-71 153t-51 183t-49 175t-67 129q-36 45 -91 45q-7 0 -13 -1q-44 -4 -84 -46t-76 -107t-66 -146t-54 -162t-42 -155t-28 -124q-6 -28 -32 -45t-54 -20q-6 -1 -12 -1q-21 0 -39 9 q-23 11 -23 39z" />
<glyph unicode="o" horiz-adv-x="774" d="M41 579q1 143 41 265t119 202q77 78 195 78h6q74 0 135 -49t105 -128t69 -180t28 -206v-29q0 -90 -16 -175q-19 -99 -64 -176t-117 -123q-66 -42 -158 -42h-16q-108 4 -181 88t-110 208q-36 121 -36 259v8zM186 577q0 -101 21 -189t62 -148t103 -64h9q66 0 113 53 q50 57 74 146t24 194t-25 196t-75 150t-126 59q-60 -2 -101 -62t-60 -147t-19 -188z" />
<glyph unicode="p" horiz-adv-x="984" d="M30 1050q10 22 30 35t43 15t47 -9t40 -35q4 -64 5 -125t4 -124t10 -130t19 -145q14 86 46 176t77 168t98 137t111 87q77 37 141 37q38 0 71 -13q90 -34 136 -121q45 -85 45 -200v-5q-1 -118 -61 -228q-42 -76 -110 -158t-149 -154t-166 -127t-159 -75l42 -590 q6 -16 -20 -31t-58 -20q-13 -2 -26 -2q-18 0 -35 4q-29 7 -29 35q-6 180 -22 377t-38 402t-46 412t-46 407zM300 230q78 28 153 80t139 112t111 123t69 115q26 58 30 125q1 11 1 21q0 54 -18 95q-21 49 -67 65q-13 4 -28 4q-38 0 -92 -30q-36 -20 -72 -70t-69 -116t-62 -141 t-50 -147t-33 -135t-12 -101z" />
<glyph unicode="q" horiz-adv-x="872" d="M51 491q1 109 24 218t67 200t111 154t155 79q31 6 60.5 6t57.5 -6q56 -12 76 -28q8 32 33 43q13 5 26 5t26 -5q27 -11 48 -40t21 -75q4 -162 14 -346t26 -374t39 -379t53 -365q52 40 78 96t38 92q10 26 36 36t52 6t42 -20q10 -10 10 -23q0 -9 -4 -19q-16 -46 -33 -85 t-36 -72t-41 -63t-48 -60q-14 -16 -52 -29q-26 -9 -53 -9q-13 0 -26 2q-41 6 -76 40t-43 114q-12 84 -25 203t-25 249t-22 262t-14 242q-4 -82 -22 -174t-50 -173t-78 -139t-106 -70q-29 -6 -55 -6q-52 0 -95 24q-64 36 -107 108t-63 172q-19 95 -19 199v10zM196 440 q2 -88 19 -159t49 -113q31 -40 74 -40h4q32 2 70 57t71 163t56 268t23 372q-47 20 -87 20q-26 0 -49 -8q-60 -20 -104 -75t-73 -136t-42 -171q-11 -78 -11 -154v-24z" />
<glyph unicode="r" horiz-adv-x="874" d="M40 974q4 42 27 61t49 22t48 -8t22 -31q12 -114 21 -187t17 -124t13 -91t9 -88q10 80 35 183t84 199t162 168t271 88h4q21 0 32 -22q12 -24 14 -54v-12q0 -23 -6 -43q-8 -25 -24 -25q-112 -4 -191 -53t-131 -128t-83 -180t-47 -209t-22 -218t-8 -204q0 -22 -21 -33 t-48 -13h-12q-21 0 -41 5q-26 7 -36 23q-10 106 -28 232t-39 256t-40 255t-31 231z" />
<glyph unicode="s" horiz-adv-x="846" d="M54 760q-14 58 -14 110q0 63 21 118q39 100 126 160t214 75q36 4 73 4q95 0 198 -27q46 -12 63 -42t12 -59t-27 -48t-56 -11q-64 16 -151 23q-22 2 -43 2q-63 0 -120 -16q-76 -21 -121 -79q-30 -39 -30 -102q0 -31 7 -68q16 -84 63 -135t108 -87t129 -62t130 -59t110 -80 t68 -121q9 -34 9 -65q0 -40 -14 -76q-25 -65 -78 -111t-126 -71q-65 -22 -134 -22h-17q-78 3 -152 37t-128 106q-21 29 -21 54q0 8 2 16q9 32 34 48t58 11t55 -41q34 -58 98 -77q38 -11 75 -11q25 0 49 5q60 13 99 53q30 31 30 73q0 13 -3 27q-10 54 -53 92t-102 71t-127 66 t-131 76t-112 101t-71 142z" />
<glyph unicode="t" horiz-adv-x="882" d="M19 815q-1 7 -1 13q0 20 7 41q9 27 37 37l268 50q-8 174 -26 354t-34 326q8 38 33 52q22 12 45 12h7q27 -2 46 -17t17 -35q6 -108 13 -182t13 -143t13 -145t15 -186q108 14 189 34t165 26q32 0 47 -20t17 -46v-9q0 -21 -8 -41q-10 -24 -26 -30l-362 -80q14 -184 27 -411 t41 -473q4 -18 -20 -33t-55 -18q-7 -1 -13 -1q-24 0 -46 9q-28 11 -32 41q-6 96 -9 193t-6 202t-9 219t-16 244q-24 0 -62 -6t-78 -14t-78 -15t-62 -7q-24 -6 -39 13t-18 46z" />
<glyph unicode="u" horiz-adv-x="1202" d="M75 838q3 96 9 144q10 34 35 51t51 17t48 -15t26 -45q-4 -50 -8 -134t-4 -178t6 -190t24 -173t50 -125q31 -46 80 -46h4q32 2 61 51t55 126t49 173t40 190t29 178t18 136q8 54 38 78t63 27q6 1 12 1q26 0 48 -11q27 -13 29 -33q8 -68 15 -157t18 -182t28 -182t45 -157 t68 -107q33 -32 77 -32q9 0 19 1q28 -4 36 -32q4 -15 4 -31q0 -14 -3 -30q-7 -33 -27 -59t-48 -22q-84 20 -142 77t-94 132t-55 159t-27 160t-9 134v35q0 31 1 45q-6 -78 -18 -168t-31 -180t-48 -174t-68 -150t-92 -109t-121 -49q-12 -1 -24 -1q-66 0 -112 48 q-54 57 -87 152t-48 214t-19 233q-2 65 -2 124q0 45 1 86z" />
<glyph unicode="v" horiz-adv-x="950" d="M44 904q-1 5 -1 10q0 24 16 46q19 26 44 39t49 10t32 -31q32 -106 77 -228t93 -237t95 -209t85 -142q64 98 109 223t73 257t42 262t18 240q8 20 32 32t50 12t47 -15t25 -45q0 -88 -14 -194t-38 -217t-54 -221t-63 -204t-65 -167t-56 -111q-20 -30 -51 -42 q-25 -10 -50 -10q-6 0 -13 1q-32 3 -58 16t-36 33q-26 50 -65 131t-81 174t-85 190t-77 179t-56 141t-24 77z" />
<glyph unicode="w" horiz-adv-x="1322" d="M72 838q2 24 30 42t60 22t57 -7t23 -43q-4 -98 -4 -182q0 -190 19 -314q27 -178 57 -206q12 20 26 76t28 122t26 129t20 99q6 36 35 54t62 18t61 -16t36 -44q22 -80 47 -162t66 -147t101 -101q45 -27 109 -27q21 0 45 3q50 8 88 86t58 197q19 113 19 252v14 q-1 147 -31 291q-8 38 15 59t53 28q14 3 28 3q16 0 31 -4q29 -8 33 -30q12 -70 20 -173q5 -63 5 -131q0 -42 -2 -86q-5 -114 -23 -229t-57 -209t-100 -155t-149 -67q-33 -5 -63 -5q-68 0 -119 25q-74 36 -126 98t-86 135t-58 133q-10 -68 -26 -138t-40 -129t-59 -100 t-83 -47q-9 -1 -17 -1q-59 0 -98 62q-45 71 -71 194t-36 283t-10 328z" />
<glyph unicode="x" horiz-adv-x="1100" d="M24 784q-6 14 -6 27q0 15 8 28q14 25 36 40t47 18t35 -11q24 -42 54 -98t66 -115t77 -115t87 -100q56 74 115 157t114 168t105 168t88 159q12 16 35 17h4l42 -11q23 -12 39 -34t16 -48q-24 -52 -78 -136t-120 -180t-137 -194t-127 -182q48 -58 111 -89t126 -32h4 q61 0 115 30q56 31 90 99q14 20 39 18t46 -18t30 -41q3 -8 3 -17q0 -17 -12 -34q-68 -98 -146 -141t-161 -43t-166 41t-161 111q-30 -34 -64 -78t-69 -89t-69 -89t-62 -78q-10 -13 -24 -13q-6 0 -12 2q-22 7 -41 24t-28 38t1 33q28 34 65 81t74 96t70 95t55 80 q-34 44 -74 96t-82 109t-83 120t-75 131z" />
<glyph unicode="y" horiz-adv-x="1004" d="M30 730q0 42 20 60t45 21t49 -5t30 -16q28 -48 86 -122t135 -150t165 -141t176 -93l66 790q4 38 30 53q18 10 37 10q9 0 19 -2q30 -7 53 -32q21 -23 21 -57v-6q-20 -156 -35 -292t-27 -260t-19 -244t-13 -246t-11 -264t-9 -298q-2 -16 -26 -30t-52 -18q-9 -1 -17 -1 q-18 0 -35 6q-24 9 -26 39l30 664q-42 8 -105 44t-134 90t-145 120t-137 133t-109 132t-62 115z" />
<glyph unicode="z" horiz-adv-x="1008" d="M37 88q0 25 11 46q10 16 45 57t85 101t108 138t116 172t109 202t85 228q-76 -12 -152 -45t-142 -73t-117 -78t-77 -58q-18 -14 -34 2t-26 44t-10 58t18 44t59 40t95 57t114 62t117 55t104 35q27 6 47 6q15 0 26 -3q38 -12 65 -36t43 -51t20 -53t-2 -42q-22 -76 -63 -163 t-93 -177t-110 -176t-111 -159t-96 -127t-65 -78q24 -4 52 -4q51 0 114 12q98 18 196 53t184 85t134 108q14 18 36 7t39 -36t23 -54q2 -7 2 -14q0 -19 -14 -31q-76 -70 -151 -119t-170 -82t-218 -53t-291 -32q-32 4 -55 25t-36 48q-14 29 -14 59z" />
<glyph unicode="{" horiz-adv-x="604" d="M56 788q2 52 42 87t86 63t84 53t36 59q-2 14 -27 66t-52 125t-44 163t-1 180t74 174t184 150q30 16 57 6t43 -31t18 -44t-18 -35q-70 -40 -129 -93t-83 -134t-4 -194t110 -273q16 -28 27 -56t10 -53t-18 -47t-57 -38l-182 -130l176 -130q40 -16 57 -38t18 -47t-10 -53 t-27 -56q-88 -160 -109 -273t4 -194t83 -134t128 -93q20 -12 18 -35t-18 -44t-43 -31t-57 6q-124 64 -183 149t-75 176t1 179t44 162t52 125t27 67q2 34 -36 60t-85 54t-85 63t-36 89z" />
<glyph unicode="|" horiz-adv-x="1952" d="M112 1604q2 58 25 101t61 65t87 19t103 -35q80 -50 145 -129t117 -175t95 -202t79 -210t68 -200t64 -168q56 42 118 102t131 124t143 128t152 114t160 81t166 31q42 0 75 -20t33 -66q0 -38 -35 -107t-95 -158t-137 -189t-161 -200t-169 -192t-159 -165t-132 -119t-88 -52 q-72 -16 -115 21t-83 113q-58 106 -130 221t-146 236t-143 247t-122 255t-83 262t-24 267z" />
<glyph unicode="}" horiz-adv-x="572" d="M30 1839q2 23 18 44t43 31t57 -6q124 -64 183 -149t75 -176t-1 -180t-44 -162t-52 -125t-27 -66q-2 -34 35 -59t84 -53t87 -63t42 -87q2 -54 -36 -89t-85 -63t-85 -54t-36 -60q2 -14 27 -66t52 -126t44 -163t1 -179t-75 -175t-183 -149q-30 -16 -57 -6t-43 31t-18 44 t18 35q68 40 127 93t84 134t4 194t-109 273q-16 28 -27 56t-10 53t18 47t57 38l176 130l-182 130q-40 16 -57 38t-18 47t10 53t27 56q90 160 110 273t-4 194t-83 134t-129 93q-20 12 -18 35z" />
<glyph unicode="~" horiz-adv-x="996" d="M99 796q-11 26 1 52q46 78 104 128t134 46q44 -2 84 -31t78 -64t72 -63t66 -28q38 0 60 13t34 35t15 51t1 63q2 32 26 39t52 -3t52 -32t24 -46q-4 -78 -30 -129t-66 -81t-86 -40t-88 -4q-48 6 -87 32t-72 56t-62 54t-57 28q-32 4 -56 -6t-41 -28t-30 -41t-25 -43 q-10 -22 -32 -20t-41 19t-30 43z" />
<glyph unicode="&#xa1;" horiz-adv-x="390" d="M38 1496q0 50 34 75t75 26t75 -21t34 -68q0 -48 -34 -68t-75 -19t-75 21t-34 54zM90 1178q2 30 27 47t54 18t53 -11t24 -40q6 -80 13 -182t13 -213t13 -228t14 -228t17 -211t20 -178q2 -18 -19 -34t-49 -22t-53 0t-31 32q-10 44 -21 151t-21 243t-20 283t-18 271t-12 208 t-4 94z" />
<glyph unicode="&#xa2;" horiz-adv-x="948" d="M61 694q7 116 37 225t84 200t126 145q-6 92 -6 146q0 32 22 49t50 20t51 -8t27 -33q2 -32 3 -60t3 -56q78 8 168 -30q32 -12 40 -42t0 -58t-27 -44t-39 -2q-70 30 -130 20q6 -68 14 -141t21 -165t31 -208t44 -268q38 38 70 87t54 102t36 105t16 94q2 26 26 32t51 -4 t48 -31t19 -47q-10 -70 -35 -142t-64 -139t-88 -124t-105 -99q6 -38 13 -76t15 -80q0 -26 -23 -43t-52 -23t-57 1t-38 29q-4 6 -10 38t-16 82q-80 -10 -154 24q-84 38 -136 120t-74 185t-15 219zM213 642q1 -80 16 -146t43 -114t70 -64q36 -14 76 -14q-12 82 -25 179 t-25 198t-23 202t-19 191q-40 -52 -65 -124t-37 -150t-11 -158z" />
<glyph unicode="&#xa3;" horiz-adv-x="1164" d="M70 525q-2 23 8 46t34 29l112 8q10 310 26 519t52 335t98 178t164 50q36 -2 69 -25t60 -60t48 -83t35 -92t22 -89t8 -73q0 -28 -20 -51t-46 -35t-48 -7t-24 33q-10 84 -22 142t-25 96t-24 57t-19 23q-58 36 -94 -13t-59 -169t-34 -305t-19 -419l264 24q28 -4 39 -23 t11 -41t-10 -42t-24 -24l-282 -22q-2 -74 -7 -137t-2 -109t20 -70t57 -20q38 4 101 27t149 34t192 -4t230 -83q20 -10 16 -34t-21 -47t-42 -35t-49 2q-82 46 -158 58t-145 4t-129 -28t-113 -36t-96 -21t-77 19q-38 26 -54 87t-20 132t0 139t6 108l-112 -10q-20 -2 -32 16 t-14 41z" />
<glyph unicode="&#xa4;" horiz-adv-x="1870" d="M84 854q-16 172 9 352t89 346q24 62 59 81t64 9t44 -41t-1 -69q-60 -138 -88 -293t-21 -306t53 -291t132 -245t216 -168t308 -63q172 0 303 60t220 168t136 259t54 335t-28 396t-109 440q-14 40 3 70t47 38t63 -15t53 -87q56 -186 89 -395t28 -412t-53 -388t-153 -326 t-272 -225t-411 -84q-196 0 -345 69t-253 186t-162 272t-74 327zM728 1043q-2 47 7 90t29 74t48 35q32 4 52 -18t31 -58t12 -79t-4 -82t-16 -68t-25 -33q-44 -16 -73 2t-44 54t-17 83zM986 1086q2 58 22 105t68 49q36 2 58 -28t31 -74t6 -93t-20 -86t-47 -53t-72 8 q-20 10 -34 62t-12 110z" />
<glyph unicode="&#xa5;" horiz-adv-x="1184" d="M30 1448q-12 38 3 66t38 44t45 19t28 -7q66 -80 141 -177t152 -193t153 -184t144 -150l270 830q14 42 45 53t60 -1t47 -42t6 -70q-54 -140 -98 -263t-82 -237t-73 -222t-67 -218l156 14q28 -4 39 -23t11 -41t-10 -42t-24 -24l-176 -16l2 -122l174 14q28 -4 39 -23t11 -41 t-10 -42t-24 -24l-188 -16l6 -282q-6 -16 -35 -27t-59 -11t-53 13t-17 45l-6 248l-184 -16q-20 -2 -32 16t-14 41t8 46t34 29l186 16l-2 122l-196 -16q-20 -2 -32 16t-14 41t8 46t34 29l188 16q-142 184 -306 376t-326 390z" />
<glyph unicode="&#xa8;" horiz-adv-x="822" d="M88 1268q0 50 34 75t75 26t75 -21t34 -68q0 -48 -34 -68t-75 -19t-75 21t-34 54zM534 1268q0 50 34 75t75 26t75 -21t34 -68q0 -48 -34 -68t-75 -19t-75 21t-34 54z" />
<glyph unicode="&#xa9;" horiz-adv-x="1546" d="M87 843q1 151 44 300t132 289t227 252q20 14 42 12t38 -16t23 -35t-1 -43q-132 -104 -213 -231t-118 -262t-34 -271t39 -255t103 -216t156 -155t197 -69t230 39q110 46 190 137t131 209t70 252t4 264t-65 246t-137 197t-212 117t-289 8q-12 0 -20 21t-10 46t3 46t21 23 q198 36 349 -9t257 -145t166 -242t76 -300t-12 -319t-100 -300t-186 -243t-270 -146q-152 -42 -281 -18t-231 97t-174 185t-109 248t-36 287zM408 831q4 113 32 220t77 199t118 150t154 74t185 -30q32 -12 40 -42t0 -58t-27 -44t-39 -2q-78 34 -140 20t-108 -61t-76 -119 t-46 -154t-17 -166t14 -156t43 -124t72 -68q56 -22 108 -10t97 47t83 87t65 109t43 115t18 106q2 26 26 32t51 -4t48 -31t19 -47q-14 -116 -73 -234t-144 -205t-189 -124t-208 11q-82 38 -134 117t-74 179t-18 213z" />
<glyph unicode="&#xab;" horiz-adv-x="1262" d="M45 593q-7 27 2 58t41 59q62 50 102 81t84 66t106 84t168 135q38 24 66 19t43 -24t15 -42t-18 -35l-448 -378l540 -220q30 -18 27 -43t-21 -46t-44 -32t-44 1l-546 244q-28 6 -47 26t-26 47zM417 639q-7 27 2 58t41 59q62 50 102 81t84 66t106 84t168 135q38 24 66 19 t43 -24t15 -42t-18 -35l-448 -378l540 -220q30 -18 27 -43t-21 -46t-44 -32t-44 1l-546 244q-28 6 -47 26t-26 47z" />
<glyph unicode="&#xad;" horiz-adv-x="768" d="M76 671q-2 23 8 46t34 29l524 44q28 -4 39 -23t11 -41t-10 -42t-24 -24l-536 -46q-20 -2 -32 16t-14 41z" />
<glyph unicode="&#xae;" horiz-adv-x="1706" d="M87 843q1 151 44 300t132 289t227 252q20 14 42 12t38 -16t23 -35t-1 -43q-132 -104 -213 -231t-118 -262t-34 -271t39 -255t103 -216t156 -155t197 -69t230 39q110 46 190 137t131 209t70 252t4 264t-65 246t-137 197t-212 117t-289 8q-12 0 -20 21t-10 46t3 46t21 23 q198 36 349 -9t257 -145t166 -242t76 -300t-12 -319t-100 -300t-186 -243t-270 -146q-152 -42 -281 -18t-231 97t-174 185t-109 248t-36 287zM462 1226q0 18 17 27t38 12t39 0t20 -13l14 -90q56 50 127 91t137 62t121 18t83 -41q50 -72 28 -150t-82 -155t-140 -149 t-148 -130q52 -16 98 -24t91 -10t90 0t97 6q18 2 24 -15t6 -38t-7 -40t-15 -19q-30 -10 -96 -6t-138 15t-134 27t-84 32l32 -222q6 -12 -12 -21t-43 -13t-47 -1t-22 15q-8 84 -20 196t-25 229t-26 224t-23 183zM608 1010l18 -248q22 18 62 49t85 70t90 82t76 86t42 83t-9 72 q-16 24 -58 20t-95 -30t-110 -74t-101 -110z" />
<glyph unicode="&#xaf;" horiz-adv-x="704" d="M50 1229q-2 23 8 46t34 29l524 44q28 -4 39 -23t11 -41t-10 -42t-24 -24l-536 -46q-20 -2 -32 16t-14 41z" />
<glyph unicode="&#xb0;" horiz-adv-x="524" d="M88 1354q0 104 54 157t119 56t119 -45t54 -144q0 -66 -26 -106t-64 -59t-83 -17t-83 22t-64 54t-26 82zM190 1378q0 -30 23 -49t51 -20t51 18t23 61t-23 63t-51 19t-51 -25t-23 -67z" />
<glyph unicode="&#xb1;" horiz-adv-x="832" d="M76 807q-2 23 8 46t34 29l184 12l-16 228q8 32 31 42t46 5t39 -20t12 -31l14 -208l214 16q28 -4 39 -23t11 -41t-10 -42t-24 -24l-222 -32l26 -266q2 -16 -18 -28t-45 -14t-47 8t-24 38l-12 252q-44 6 -97 -2t-97 -2q-20 -2 -32 16t-14 41zM118 315q-2 23 8 46t34 29 l524 44q28 -4 39 -23t11 -41t-10 -42t-24 -24l-536 -46q-20 -2 -32 16t-14 41z" />
<glyph unicode="&#xb4;" horiz-adv-x="380" d="M102 1241q-12 25 8 65l82 140q20 26 45 27t45 -12t31 -35t3 -44l-90 -160q-10 -18 -37 -22t-51 6t-36 35z" />
<glyph unicode="&#xb8;" horiz-adv-x="448" d="M44 -58l2 70q0 18 14 28t33 13t39 -2t32 -21v-80q72 10 122 -10t76 -56t26 -80t-26 -82t-81 -63t-137 -23q-22 2 -31 24t-7 49t11 48t21 19q66 -10 96 2t30 28t-28 27t-78 -3q-34 -10 -55 3t-35 34t-19 43t-5 32z" />
<glyph unicode="&#xbb;" horiz-adv-x="1282" d="M53 399q-3 25 27 43l540 220l-448 378q-18 12 -18 35t15 42t43 24t66 -19q106 -86 168 -135t106 -84t84 -66t102 -81q32 -28 41 -59t2 -58t-27 -47t-46 -26l-546 -244q-18 -12 -44 -1t-44 32t-21 46zM483 355q-3 25 27 43l540 220l-448 378q-18 12 -18 35t15 42t43 24 t66 -19q106 -86 168 -135t106 -84t84 -66t102 -81q32 -28 41 -59t2 -58t-27 -47t-46 -26l-546 -244q-18 -12 -44 -1t-44 32t-21 46z" />
<glyph unicode="&#xbc;" horiz-adv-x="1592" d="M124 1598q-2 24 13 37t34 16t35 -7t20 -32l86 -1176q-2 -18 -21 -25t-40 -6t-37 12t-16 29zM234 -20q-8 18 2 32l934 1676q12 20 31 23t37 -5t27 -25t-1 -37l-938 -1702q-12 -14 -31 -10t-36 17t-25 31zM763 331q-3 29 5 61t24 54q68 96 121 166t98 140t88 153t91 205 q0 26 22 45t47 27t46 4t21 -24q4 -72 6 -128t4 -124t3 -159t5 -233l132 30q18 8 28 -6t11 -33t-7 -38t-28 -21q-4 -4 -23 -9t-41 -11t-41 -11t-21 -9q6 -120 7 -203t1 -137v-82t4 -36q0 -16 -17 -27t-36 -16t-36 1t-17 28q-2 24 -2 87v134t-1 133t-1 86q-94 -20 -160 -37 t-116 -30t-88 -24t-72 -19q-26 -4 -40 15t-17 48zM864 386q20 0 71 12t110 30t115 36t86 30l2 550q-8 -56 -39 -124t-73 -138t-89 -136t-87 -121t-67 -92t-29 -47z" />
<glyph unicode="&#xbd;" horiz-adv-x="1648" d="M124 1598q-2 24 13 37t34 16t35 -7t20 -32l86 -1176q-2 -18 -21 -25t-40 -6t-37 12t-16 29zM234 -20q-8 18 2 32l934 1676q12 20 31 23t37 -5t27 -25t-1 -37l-938 -1702q-12 -14 -31 -10t-36 17t-25 31zM922 818q-2 22 18 40q20 20 57 54t82 71t94 72t96 56t87 23t66 -24 q46 -46 43 -121t-36 -168t-87 -196t-110 -206t-105 -199t-71 -174q52 2 107 15t112 29t115 32t112 26q20 4 37 -9t24 -30t2 -34t-27 -23q-108 -30 -183 -50t-133 -33t-105 -20t-97 -11q-44 -4 -61 14t-18 45t9 59t20 58q20 48 63 129t95 177t104 197t88 187t48 146t-16 76 q-18 10 -59 -6t-92 -52t-104 -85t-95 -105q-14 -18 -33 -15t-32 18t-15 37z" />
<glyph unicode="&#xbe;" horiz-adv-x="1932" d="M68 1370q18 44 55 90t84 85t100 66t104 35t96 -8t75 -62q54 -84 44 -167t-54 -154t-103 -124t-101 -79q56 10 123 11t129 -17t107 -60t57 -116q12 -80 -13 -153t-74 -132t-117 -98t-143 -52t-151 7t-140 80q-16 24 -11 45t19 35t32 18t28 -4q32 -50 83 -70t107 -15 t110 33t94 71t59 100t5 123q-16 70 -111 97t-227 -7q-30 -6 -51 12t-30 44t-5 54t22 42q42 34 92 83t90 103t59 109t1 101q-18 42 -59 52t-94 -14t-112 -83t-113 -155q-6 -10 -20 -10t-26 9t-19 27t-1 48zM518 -20q-8 18 2 32l934 1676q12 20 31 23t37 -5t27 -25t-1 -37 l-938 -1702q-12 -14 -31 -10t-36 17t-25 31zM1059 371q-3 29 5 61t24 54q68 96 121 166t98 140t88 153t91 205q0 26 22 45t47 27t46 4t21 -24q4 -72 6 -128t4 -124t3 -159t5 -233l132 30q18 8 28 -6t11 -33t-7 -38t-28 -21q-4 -4 -23 -9t-41 -11t-41 -11t-21 -9 q6 -120 7 -203t1 -137v-82t4 -36q0 -16 -17 -27t-36 -16t-36 1t-17 28q-2 24 -2 87v134t-1 133t-1 86q-94 -20 -160 -37t-116 -30t-88 -24t-72 -19q-26 -4 -40 15t-17 48zM1160 426q20 0 71 12t110 30t115 36t86 30l2 550q-8 -56 -39 -124t-73 -138t-89 -136t-87 -121 t-67 -92t-29 -47z" />
<glyph unicode="&#xbf;" horiz-adv-x="956" d="M65 191q1 91 35 192t92 207t127 201t141 174t134 127q24 12 47 4t38 -25t16 -41t-17 -46q-50 -44 -113 -113t-124 -151t-114 -170t-85 -170t-38 -153t28 -117q40 -54 93 -61t111 17t117 70t110 98t92 101t61 79q24 22 51 18t47 -21t28 -40t-4 -39q-44 -60 -109 -128 t-139 -128t-154 -103t-157 -56t-147 12t-124 105q-44 66 -43 157zM458 1506q0 50 34 75t75 26t75 -21t34 -68q0 -48 -34 -68t-75 -19t-75 21t-34 54z" />
<glyph unicode="&#xc0;" d="M52 -28l124 688l-68 -18q-26 -14 -38 7t-10 52t18 61t46 34l74 18l162 788q4 32 31 56t60 34t64 2t41 -40q38 -124 79 -237t76 -204t62 -158t39 -97q12 4 46 12t72 17t72 17t48 10q36 2 57 -14t28 -40t-2 -47t-33 -35l-240 -60l250 -670q18 -24 2 -49t-44 -39t-56 -12 t-32 30l-264 708l-392 -92l-128 -714q-2 -20 -23 -39t-47 -27t-48 4t-26 54zM342 846l326 78l-196 544zM342 1960q-8 22 3 44t31 35t45 12t45 -27l82 -140q20 -40 8 -65t-36 -35t-51 -6t-37 22z" />
<glyph unicode="&#xc1;" d="M52 -28l124 688l-68 -18q-26 -14 -38 7t-10 52t18 61t46 34l74 18l162 788q4 32 31 56t60 34t64 2t41 -40q38 -124 79 -237t76 -204t62 -158t39 -97q12 4 46 12t72 17t72 17t48 10q36 2 57 -14t28 -40t-2 -47t-33 -35l-240 -60l250 -670q18 -24 2 -49t-44 -39t-56 -12 t-32 30l-264 708l-392 -92l-128 -714q-2 -20 -23 -39t-47 -27t-48 4t-26 54zM342 846l326 78l-196 544zM386 1807q-12 25 8 65l82 140q20 26 45 27t45 -12t31 -35t3 -44l-90 -160q-10 -18 -37 -22t-51 6t-36 35z" />
<glyph unicode="&#xc2;" d="M52 -28l124 688l-68 -18q-26 -14 -38 7t-10 52t18 61t46 34l74 18l162 788q4 32 31 56t60 34t64 2t41 -40q38 -124 79 -237t76 -204t62 -158t39 -97q12 4 46 12t72 17t72 17t48 10q36 2 57 -14t28 -40t-2 -47t-33 -35l-240 -60l250 -670q18 -24 2 -49t-44 -39t-56 -12 t-32 30l-264 708l-392 -92l-128 -714q-2 -20 -23 -39t-47 -27t-48 4t-26 54zM197 1782q-11 24 3 40l150 244q10 26 32 43t50 21t57 -9t53 -47l130 -226q20 -40 9 -67t-33 -40t-48 -11t-36 20l-116 218l-120 -218q-22 -28 -49 -26t-49 18t-33 40zM342 846l326 78l-196 544z " />
<glyph unicode="&#xc3;" d="M52 -28l124 688l-68 -18q-26 -14 -38 7t-10 52t18 61t46 34l74 18l162 788q4 32 31 56t60 34t64 2t41 -40q38 -124 79 -237t76 -204t62 -158t39 -97q12 4 46 12t72 17t72 17t48 10q36 2 57 -14t28 -40t-2 -47t-33 -35l-240 -60l250 -670q18 -24 2 -49t-44 -39t-56 -12 t-32 30l-264 708l-392 -92l-128 -714q-2 -20 -23 -39t-47 -27t-48 4t-26 54zM127 1846q-11 26 1 52q46 78 104 128t134 46q44 -2 84 -31t78 -64t72 -63t66 -28q38 0 60 13t34 35t15 51t1 63q2 32 26 39t52 -3t52 -32t24 -46q-4 -78 -30 -129t-66 -81t-86 -40t-88 -4 q-48 6 -87 32t-72 56t-62 54t-57 28q-32 4 -56 -6t-41 -28t-30 -41t-25 -43q-10 -22 -32 -20t-41 19t-30 43zM342 846l326 78l-196 544z" />
<glyph unicode="&#xc4;" d="M52 -28l124 688l-68 -18q-26 -14 -38 7t-10 52t18 61t46 34l74 18l162 788q4 32 31 56t60 34t64 2t41 -40q38 -124 79 -237t76 -204t62 -158t39 -97q12 4 46 12t72 17t72 17t48 10q36 2 57 -14t28 -40t-2 -47t-33 -35l-240 -60l250 -670q18 -24 2 -49t-44 -39t-56 -12 t-32 30l-264 708l-392 -92l-128 -714q-2 -20 -23 -39t-47 -27t-48 4t-26 54zM126 1806q0 50 34 75t75 26t75 -21t34 -68q0 -48 -34 -68t-75 -19t-75 21t-34 54zM342 846l326 78l-196 544zM572 1806q0 50 34 75t75 26t75 -21t34 -68q0 -48 -34 -68t-75 -19t-75 21t-34 54z " />
<glyph unicode="&#xc5;" d="M52 -28l124 688l-68 -18q-26 -14 -38 7t-10 52t18 61t46 34l74 18l162 788q4 32 31 56t60 34t64 2t41 -40q38 -124 79 -237t76 -204t62 -158t39 -97q12 4 46 12t72 17t72 17t48 10q36 2 57 -14t28 -40t-2 -47t-33 -35l-240 -60l250 -670q18 -24 2 -49t-44 -39t-56 -12 t-32 30l-264 708l-392 -92l-128 -714q-2 -20 -23 -39t-47 -27t-48 4t-26 54zM264 1932q0 104 54 157t119 56t119 -45t54 -144q0 -66 -26 -106t-64 -59t-83 -17t-83 22t-64 54t-26 82zM342 846l326 78l-196 544zM366 1956q0 -30 23 -49t51 -20t51 18t23 61t-23 63t-51 19 t-51 -25t-23 -67z" />
<glyph unicode="&#xc6;" horiz-adv-x="1644" d="M40 -18l198 670l-68 -8q-28 -10 -38 12t-4 53t25 59t49 28l76 8l220 666q8 30 43 44t73 12t67 -21t27 -53q60 2 131 20t145 43t146 55t133 58t106 50t67 32q34 16 62 2t41 -39t10 -52t-33 -37q-116 -38 -240 -87t-233 -93t-190 -77t-107 -41v-126t2 -147t9 -145t21 -122 q36 2 86 40t98 86t89 94t61 62q18 16 41 13t40 -17t24 -35t-5 -43q-50 -74 -109 -135t-116 -108t-108 -80t-83 -53q4 -16 8 -54t10 -86t15 -101t23 -99t32 -78t44 -40q48 -14 102 2t109 52t110 88t103 109t89 114t69 105q18 18 38 13t37 -23t24 -43t-1 -49q-26 -56 -73 -117 t-106 -121t-126 -115t-134 -98t-128 -70t-107 -31q-72 -6 -122 58t-83 172t-53 246t-32 280l-254 -18l-204 -696q-4 -18 -27 -35t-50 -21t-48 11t-21 57zM426 816l208 6q-10 136 -12 274t-28 278z" />
<glyph unicode="&#xc7;" horiz-adv-x="1010" d="M39 849q-7 161 10 313t58 270t108 189t161 69q36 -2 69 -25t60 -60t48 -83t35 -92t22 -89t8 -73q0 -28 -20 -51t-46 -35t-48 -7t-24 33q-18 168 -46 245t-44 87q-50 14 -88 -37t-64 -146t-38 -222t-8 -263t23 -270t56 -243t92 -182t131 -85q60 -10 123 18t112 94t79 168 t28 238q0 22 22 30t48 4t48 -20t22 -44q-2 -152 -44 -275t-113 -207t-164 -124t-197 -26q-96 12 -170 94t-127 208t-84 282t-38 317zM452 -108l2 70q0 18 14 28t33 13t39 -2t32 -21v-80q72 10 122 -10t76 -56t26 -80t-26 -82t-81 -63t-137 -23q-22 2 -31 24t-7 49t11 48 t21 19q66 -10 96 2t30 28t-28 27t-78 -3q-34 -10 -55 3t-35 34t-19 43t-5 32z" />
<glyph unicode="&#xc8;" horiz-adv-x="1100" d="M52 1398q6 32 27 50t55 18t76 -24q262 102 428 165t254 103q34 16 62 2t41 -39t10 -52t-33 -37q-116 -38 -240 -87t-233 -93t-190 -77t-107 -41v-126t2 -147t9 -145t21 -122q36 2 86 40t98 86t89 94t61 62q18 16 41 13t40 -17t24 -35t-5 -43q-50 -74 -109 -135t-116 -108 t-108 -80t-83 -53q4 -16 8 -54t10 -86t15 -101t23 -99t32 -78t44 -40q48 -14 102 2t109 52t110 88t103 109t89 114t69 105q18 18 38 13t37 -23t24 -43t-1 -49q-26 -56 -73 -117t-106 -121t-126 -115t-134 -98t-128 -70t-107 -31q-64 -6 -111 47t-80 144t-55 210t-35 247 t-20 253t-11 229t-8 176t-10 92q-14 40 -8 72zM430 1928q-8 22 3 44t31 35t45 12t45 -27l82 -140q20 -40 8 -65t-36 -35t-51 -6t-37 22z" />
<glyph unicode="&#xc9;" horiz-adv-x="1100" d="M52 1398q6 32 27 50t55 18t76 -24q262 102 428 165t254 103q34 16 62 2t41 -39t10 -52t-33 -37q-116 -38 -240 -87t-233 -93t-190 -77t-107 -41v-126t2 -147t9 -145t21 -122q36 2 86 40t98 86t89 94t61 62q18 16 41 13t40 -17t24 -35t-5 -43q-50 -74 -109 -135t-116 -108 t-108 -80t-83 -53q4 -16 8 -54t10 -86t15 -101t23 -99t32 -78t44 -40q48 -14 102 2t109 52t110 88t103 109t89 114t69 105q18 18 38 13t37 -23t24 -43t-1 -49q-26 -56 -73 -117t-106 -121t-126 -115t-134 -98t-128 -70t-107 -31q-64 -6 -111 47t-80 144t-55 210t-35 247 t-20 253t-11 229t-8 176t-10 92q-14 40 -8 72zM454 1787q-12 25 8 65l82 140q20 26 45 27t45 -12t31 -35t3 -44l-90 -160q-10 -18 -37 -22t-51 6t-36 35z" />
<glyph unicode="&#xca;" horiz-adv-x="1100" d="M52 1398q6 32 27 50t55 18t76 -24q262 102 428 165t254 103q34 16 62 2t41 -39t10 -52t-33 -37q-116 -38 -240 -87t-233 -93t-190 -77t-107 -41v-126t2 -147t9 -145t21 -122q36 2 86 40t98 86t89 94t61 62q18 16 41 13t40 -17t24 -35t-5 -43q-50 -74 -109 -135t-116 -108 t-108 -80t-83 -53q4 -16 8 -54t10 -86t15 -101t23 -99t32 -78t44 -40q48 -14 102 2t109 52t110 88t103 109t89 114t69 105q18 18 38 13t37 -23t24 -43t-1 -49q-26 -56 -73 -117t-106 -121t-126 -115t-134 -98t-128 -70t-107 -31q-64 -6 -111 47t-80 144t-55 210t-35 247 t-20 253t-11 229t-8 176t-10 92q-14 40 -8 72zM301 1802q-11 24 3 40l150 244q10 26 32 43t50 21t57 -9t53 -47l130 -226q20 -40 9 -67t-33 -40t-48 -11t-36 20l-116 218l-120 -218q-22 -28 -49 -26t-49 18t-33 40z" />
<glyph unicode="&#xcb;" horiz-adv-x="1100" d="M52 1398q6 32 27 50t55 18t76 -24q262 102 428 165t254 103q34 16 62 2t41 -39t10 -52t-33 -37q-116 -38 -240 -87t-233 -93t-190 -77t-107 -41v-126t2 -147t9 -145t21 -122q36 2 86 40t98 86t89 94t61 62q18 16 41 13t40 -17t24 -35t-5 -43q-50 -74 -109 -135t-116 -108 t-108 -80t-83 -53q4 -16 8 -54t10 -86t15 -101t23 -99t32 -78t44 -40q48 -14 102 2t109 52t110 88t103 109t89 114t69 105q18 18 38 13t37 -23t24 -43t-1 -49q-26 -56 -73 -117t-106 -121t-126 -115t-134 -98t-128 -70t-107 -31q-64 -6 -111 47t-80 144t-55 210t-35 247 t-20 253t-11 229t-8 176t-10 92q-14 40 -8 72zM218 1814q0 50 34 75t75 26t75 -21t34 -68q0 -48 -34 -68t-75 -19t-75 21t-34 54zM664 1814q0 50 34 75t75 26t75 -21t34 -68q0 -48 -34 -68t-75 -19t-75 21t-34 54z" />
<glyph unicode="&#xcc;" horiz-adv-x="338" d="M-16 1956q-8 22 3 44t31 35t45 12t45 -27l82 -140q20 -40 8 -65t-36 -35t-51 -6t-37 22zM28 1624q-2 32 19 51t48 22t51 -10t28 -45l122 -1680q-4 -26 -30 -36t-56 -7t-54 18t-22 39z" />
<glyph unicode="&#xcd;" horiz-adv-x="338" d="M28 1624q-2 32 19 51t48 22t51 -10t28 -45l122 -1680q-4 -26 -30 -36t-56 -7t-54 18t-22 39zM76 1787q-12 25 8 65l82 140q20 26 45 27t45 -12t31 -35t3 -44l-90 -160q-10 -18 -37 -22t-51 6t-36 35z" />
<glyph unicode="&#xce;" horiz-adv-x="338" d="M-141 1798q-11 24 3 40l150 244q10 26 32 43t50 21t57 -9t53 -47l130 -226q20 -40 9 -67t-33 -40t-48 -11t-36 20l-116 218l-120 -218q-22 -28 -49 -26t-49 18t-33 40zM28 1624q-2 32 19 51t48 22t51 -10t28 -45l122 -1680q-4 -26 -30 -36t-56 -7t-54 18t-22 39z" />
<glyph unicode="&#xcf;" horiz-adv-x="338" d="M-232 1814q0 50 34 75t75 26t75 -21t34 -68q0 -48 -34 -68t-75 -19t-75 21t-34 54zM28 1624q-2 32 19 51t48 22t51 -10t28 -45l122 -1680q-4 -26 -30 -36t-56 -7t-54 18t-22 39zM214 1814q0 50 34 75t75 26t75 -21t34 -68q0 -48 -34 -68t-75 -19t-75 21t-34 54z" />
<glyph unicode="&#xd1;" horiz-adv-x="1346" d="M58 1566q2 34 27 51t55 18t59 -12t43 -37q38 -76 97 -209t129 -288t149 -315t158 -288t156 -206t143 -72q44 4 67 59t28 144t-4 202t-26 234t-40 240t-48 220t-47 174t-36 103q-12 42 10 64t54 26t63 -10t37 -44q8 -26 28 -105t44 -190t48 -245t40 -272t18 -270t-16 -237 t-63 -176t-123 -85q-76 -14 -151 27t-147 120t-139 188t-128 230t-115 243t-100 230t-82 192t-60 126q-2 -76 7 -207t23 -284t31 -312t32 -294t26 -227t13 -112q-10 -32 -36 -44t-55 -10t-50 14t-17 28q-6 60 -17 182t-23 276t-24 326t-21 332t-14 292t-3 210zM145 1794 q-11 26 1 52q46 78 104 128t134 46q44 -2 84 -31t78 -64t72 -63t66 -28q38 0 60 13t34 35t15 51t1 63q2 32 26 39t52 -3t52 -32t24 -46q-4 -78 -30 -129t-66 -81t-86 -40t-88 -4q-48 6 -87 32t-72 56t-62 54t-57 28q-32 4 -56 -6t-41 -28t-30 -41t-25 -43q-10 -22 -32 -20 t-41 19t-30 43z" />
<glyph unicode="&#xd2;" horiz-adv-x="1028" d="M47 808q1 128 23 245t65 218t107 169q20 14 42 12t38 -16t23 -35t-1 -43q-48 -42 -81 -122t-52 -180t-22 -213t10 -223t42 -210t75 -173t108 -112t142 -27q78 10 133 79t89 171t48 226t8 248q-4 96 -21 197t-48 193t-77 168t-110 123t-146 56t-184 -31q-12 0 -20 21 t-10 46t3 46t21 23q136 34 242 15t188 -76t139 -147t93 -197t54 -226t20 -235q2 -144 -20 -292t-76 -268t-143 -198t-217 -80q-96 -2 -174 45t-136 129t-98 192t-59 232t-18 250zM214 1924q-8 22 3 44t31 35t45 12t45 -27l82 -140q20 -40 8 -65t-36 -35t-51 -6t-37 22z" />
<glyph unicode="&#xd3;" horiz-adv-x="1028" d="M47 808q1 128 23 245t65 218t107 169q20 14 42 12t38 -16t23 -35t-1 -43q-48 -42 -81 -122t-52 -180t-22 -213t10 -223t42 -210t75 -173t108 -112t142 -27q78 10 133 79t89 171t48 226t8 248q-4 96 -21 197t-48 193t-77 168t-110 123t-146 56t-184 -31q-12 0 -20 21 t-10 46t3 46t21 23q136 34 242 15t188 -76t139 -147t93 -197t54 -226t20 -235q2 -144 -20 -292t-76 -268t-143 -198t-217 -80q-96 -2 -174 45t-136 129t-98 192t-59 232t-18 250zM418 1787q-12 25 8 65l82 140q20 26 45 27t45 -12t31 -35t3 -44l-90 -160q-10 -18 -37 -22 t-51 6t-36 35z" />
<glyph unicode="&#xd4;" horiz-adv-x="1028" d="M47 808q1 128 23 245t65 218t107 169q20 14 42 12t38 -16t23 -35t-1 -43q-48 -42 -81 -122t-52 -180t-22 -213t10 -223t42 -210t75 -173t108 -112t142 -27q78 10 133 79t89 171t48 226t8 248q-4 96 -21 197t-48 193t-77 168t-110 123t-146 56t-184 -31q-12 0 -20 21 t-10 46t3 46t21 23q136 34 242 15t188 -76t139 -147t93 -197t54 -226t20 -235q2 -144 -20 -292t-76 -268t-143 -198t-217 -80q-96 -2 -174 45t-136 129t-98 192t-59 232t-18 250zM121 1782q-11 24 3 40l150 244q10 26 32 43t50 21t57 -9t53 -47l130 -226q20 -40 9 -67 t-33 -40t-48 -11t-36 20l-116 218l-120 -218q-22 -28 -49 -26t-49 18t-33 40z" />
<glyph unicode="&#xd5;" horiz-adv-x="1028" d="M47 808q1 128 23 245t65 218t107 169q20 14 42 12t38 -16t23 -35t-1 -43q-48 -42 -81 -122t-52 -180t-22 -213t10 -223t42 -210t75 -173t108 -112t142 -27q78 10 133 79t89 171t48 226t8 248q-4 96 -21 197t-48 193t-77 168t-110 123t-146 56t-184 -31q-12 0 -20 21 t-10 46t3 46t21 23q136 34 242 15t188 -76t139 -147t93 -197t54 -226t20 -235q2 -144 -20 -292t-76 -268t-143 -198t-217 -80q-96 -2 -174 45t-136 129t-98 192t-59 232t-18 250zM127 1866q-11 26 1 52q46 78 104 128t134 46q44 -2 84 -31t78 -64t72 -63t66 -28q38 0 60 13 t34 35t15 51t1 63q2 32 26 39t52 -3t52 -32t24 -46q-4 -78 -30 -129t-66 -81t-86 -40t-88 -4q-48 6 -87 32t-72 56t-62 54t-57 28q-32 4 -56 -6t-41 -28t-30 -41t-25 -43q-10 -22 -32 -20t-41 19t-30 43z" />
<glyph unicode="&#xd6;" horiz-adv-x="1028" d="M47 808q1 128 23 245t65 218t107 169q20 14 42 12t38 -16t23 -35t-1 -43q-48 -42 -81 -122t-52 -180t-22 -213t10 -223t42 -210t75 -173t108 -112t142 -27q78 10 133 79t89 171t48 226t8 248q-4 96 -21 197t-48 193t-77 168t-110 123t-146 56t-184 -31q-12 0 -20 21 t-10 46t3 46t21 23q136 34 242 15t188 -76t139 -147t93 -197t54 -226t20 -235q2 -144 -20 -292t-76 -268t-143 -198t-217 -80q-96 -2 -174 45t-136 129t-98 192t-59 232t-18 250zM52 1798q0 50 34 75t75 26t75 -21t34 -68q0 -48 -34 -68t-75 -19t-75 21t-34 54zM498 1798 q0 50 34 75t75 26t75 -21t34 -68q0 -48 -34 -68t-75 -19t-75 21t-34 54z" />
<glyph unicode="&#xd7;" horiz-adv-x="720" d="M88 777q6 21 22 35t37 18t35 -4l178 -150l170 190q10 12 32 4t41 -26t28 -42t-9 -42l-168 -170q26 -38 69 -74t69 -74q16 -14 12 -35t-19 -37t-38 -23t-45 9l-138 134l-150 -158q-30 -14 -53 -3t-35 32t-13 43t13 28l136 144l-162 156q-18 24 -12 45z" />
<glyph unicode="&#xd8;" horiz-adv-x="1028" d="M49 863q5 117 28 224t64 198t101 155q20 14 42 12t38 -16t23 -35t-1 -43q-62 -54 -99 -167t-50 -251t0 -285t53 -269l434 1018q-36 50 -79 86t-96 54t-115 15t-134 -31q-12 0 -20 21t-10 46t3 46t21 23q162 40 284 6t208 -120l48 112q16 28 44 33t52 -7t37 -35t-1 -53 l-78 -188q72 -130 105 -291t37 -323q2 -144 -20 -292t-76 -268t-143 -198t-217 -80q-74 -2 -136 26t-114 78l-40 -94q-16 -20 -44 -14t-52 24t-36 43t2 45l62 144q-46 88 -76 196t-42 223t-7 232zM338 202q44 -58 101 -86t127 -18q78 10 133 79t89 171t48 226t8 248 q-6 102 -24 206t-52 200z" />
<glyph unicode="&#xd9;" horiz-adv-x="1172" d="M73 1138q-3 130 3 248t16 206q4 36 29 48t53 9t49 -17t17 -32q-8 -52 -15 -142t-8 -202t6 -239t23 -252t44 -238t70 -199t102 -137t138 -49q98 2 168 83t117 209t72 292t31 332t-7 328t-41 284q6 26 30 40t52 16t51 -9t25 -31q18 -122 28 -293t3 -358t-38 -371t-93 -331 t-161 -242t-245 -101q-96 -4 -171 42t-131 130t-96 198t-66 243t-39 267t-16 268zM466 1928q-8 22 3 44t31 35t45 12t45 -27l82 -140q20 -40 8 -65t-36 -35t-51 -6t-37 22z" />
<glyph unicode="&#xda;" horiz-adv-x="1172" d="M73 1138q-3 130 3 248t16 206q4 36 29 48t53 9t49 -17t17 -32q-8 -52 -15 -142t-8 -202t6 -239t23 -252t44 -238t70 -199t102 -137t138 -49q98 2 168 83t117 209t72 292t31 332t-7 328t-41 284q6 26 30 40t52 16t51 -9t25 -31q18 -122 28 -293t3 -358t-38 -371t-93 -331 t-161 -242t-245 -101q-96 -4 -171 42t-131 130t-96 198t-66 243t-39 267t-16 268zM490 1787q-12 25 8 65l82 140q20 26 45 27t45 -12t31 -35t3 -44l-90 -160q-10 -18 -37 -22t-51 6t-36 35z" />
<glyph unicode="&#xdb;" horiz-adv-x="1172" d="M73 1138q-3 130 3 248t16 206q4 36 29 48t53 9t49 -17t17 -32q-8 -52 -15 -142t-8 -202t6 -239t23 -252t44 -238t70 -199t102 -137t138 -49q98 2 168 83t117 209t72 292t31 332t-7 328t-41 284q6 26 30 40t52 16t51 -9t25 -31q18 -122 28 -293t3 -358t-38 -371t-93 -331 t-161 -242t-245 -101q-96 -4 -171 42t-131 130t-96 198t-66 243t-39 267t-16 268zM337 1802q-11 24 3 40l150 244q10 26 32 43t50 21t57 -9t53 -47l130 -226q20 -40 9 -67t-33 -40t-48 -11t-36 20l-116 218l-120 -218q-22 -28 -49 -26t-49 18t-33 40z" />
<glyph unicode="&#xdc;" horiz-adv-x="1172" d="M73 1138q-3 130 3 248t16 206q4 36 29 48t53 9t49 -17t17 -32q-8 -52 -15 -142t-8 -202t6 -239t23 -252t44 -238t70 -199t102 -137t138 -49q98 2 168 83t117 209t72 292t31 332t-7 328t-41 284q6 26 30 40t52 16t51 -9t25 -31q18 -122 28 -293t3 -358t-38 -371t-93 -331 t-161 -242t-245 -101q-96 -4 -171 42t-131 130t-96 198t-66 243t-39 267t-16 268zM254 1814q0 50 34 75t75 26t75 -21t34 -68q0 -48 -34 -68t-75 -19t-75 21t-34 54zM700 1814q0 50 34 75t75 26t75 -21t34 -68q0 -48 -34 -68t-75 -19t-75 21t-34 54z" />
<glyph unicode="&#xdd;" horiz-adv-x="1184" d="M30 1448q-12 38 3 66t38 44t45 19t28 -7q66 -80 141 -177t152 -193t153 -184t144 -150l270 830q14 42 45 53t60 -1t47 -42t6 -70q-92 -246 -160 -445t-127 -389t-116 -394t-125 -458q-6 -16 -35 -27t-59 -11t-53 13t-17 45l202 698q-144 188 -310 384t-332 396zM496 1787 q-12 25 8 65l82 140q20 26 45 27t45 -12t31 -35t3 -44l-90 -160q-10 -18 -37 -22t-51 6t-36 35z" />
<glyph unicode="&#xde;" horiz-adv-x="1024" d="M42 1236q10 22 30 35t43 15t47 -9t40 -35q4 -64 9 -158t13 -196t18 -202t22 -178q14 86 46 176t77 168t98 137t111 87q122 58 212 24t136 -121t45 -205t-61 -228q-42 -76 -112 -158t-152 -154t-168 -127t-160 -75l26 -380q6 -16 -20 -31t-58 -20t-61 2t-29 35 q-6 180 -22 377t-38 402t-46 412t-46 407zM336 206q78 28 153 80t139 112t111 123t69 115q26 58 30 125t-17 116t-67 65t-120 -26q-36 -20 -72 -70t-69 -116t-62 -141t-50 -147t-33 -135t-12 -101z" />
<glyph unicode="&#xdf;" horiz-adv-x="1172" d="M46 1137q10 119 52 221t119 184t197 134q46 20 93 29t88 2t76 -31t57 -68q48 -94 42 -211t-46 -234t-103 -220t-129 -165q90 36 197 60t201 13t161 -69t77 -184q8 -112 -34 -226t-135 -201t-237 -134t-338 -25q-24 14 -33 41t-3 52t26 42t54 9q140 -28 252 3t187 97 t109 156t16 184q-14 72 -70 99t-133 21t-164 -40t-161 -84q-18 -12 -51 4t-59 47t-33 71t27 74q74 76 139 175t106 203t50 201t-29 167q-22 42 -68 47t-102 -23q-40 -20 -92 -64t-95 -115t-68 -173t-9 -240l132 -1012q10 -18 -10 -38t-49 -29t-58 0t-37 45l-110 960 q-12 126 -2 245z" />
<glyph unicode="&#xe0;" horiz-adv-x="994" d="M36 373q0 101 23 205t69 202t118 175t169 122t221 43q18 22 51 24t63 -10t50 -31t16 -39q-14 -62 -30 -154t-24 -192t-7 -200t19 -177t58 -124t108 -41q22 -4 31 -28t6 -53t-20 -53t-47 -26q-78 10 -128 45t-81 83t-45 101t-20 101q-16 -90 -57 -162t-98 -119t-124 -68 t-135 -9q-60 10 -102 64t-63 137t-21 184zM185 363q-1 -95 22 -161t67 -72q72 -10 136 66t111 201t72 281t21 304q-110 0 -190 -61t-133 -154t-79 -201t-27 -203zM378 1382q-8 22 3 44t31 35t45 12t45 -27l82 -140q20 -40 8 -65t-36 -35t-51 -6t-37 22z" />
<glyph unicode="&#xe1;" horiz-adv-x="994" d="M36 373q0 101 23 205t69 202t118 175t169 122t221 43q18 22 51 24t63 -10t50 -31t16 -39q-14 -62 -30 -154t-24 -192t-7 -200t19 -177t58 -124t108 -41q22 -4 31 -28t6 -53t-20 -53t-47 -26q-78 10 -128 45t-81 83t-45 101t-20 101q-16 -90 -57 -162t-98 -119t-124 -68 t-135 -9q-60 10 -102 64t-63 137t-21 184zM185 363q-1 -95 22 -161t67 -72q72 -10 136 66t111 201t72 281t21 304q-110 0 -190 -61t-133 -154t-79 -201t-27 -203zM402 1241q-12 25 8 65l82 140q20 26 45 27t45 -12t31 -35t3 -44l-90 -160q-10 -18 -37 -22t-51 6t-36 35z" />
<glyph unicode="&#xe2;" horiz-adv-x="994" d="M36 373q0 101 23 205t69 202t118 175t169 122t221 43q18 22 51 24t63 -10t50 -31t16 -39q-14 -62 -30 -154t-24 -192t-7 -200t19 -177t58 -124t108 -41q22 -4 31 -28t6 -53t-20 -53t-47 -26q-78 10 -128 45t-81 83t-45 101t-20 101q-16 -90 -57 -162t-98 -119t-124 -68 t-135 -9q-60 10 -102 64t-63 137t-21 184zM185 363q-1 -95 22 -161t67 -72q72 -10 136 66t111 201t72 281t21 304q-110 0 -190 -61t-133 -154t-79 -201t-27 -203zM249 1256q-11 24 3 40l150 244q10 26 32 43t50 21t57 -9t53 -47l130 -226q20 -40 9 -67t-33 -40t-48 -11 t-36 20l-116 218l-120 -218q-22 -28 -49 -26t-49 18t-33 40z" />
<glyph unicode="&#xe3;" horiz-adv-x="994" d="M36 373q0 101 23 205t69 202t118 175t169 122t221 43q18 22 51 24t63 -10t50 -31t16 -39q-14 -62 -30 -154t-24 -192t-7 -200t19 -177t58 -124t108 -41q22 -4 31 -28t6 -53t-20 -53t-47 -26q-78 10 -128 45t-81 83t-45 101t-20 101q-16 -90 -57 -162t-98 -119t-124 -68 t-135 -9q-60 10 -102 64t-63 137t-21 184zM109 1320q-11 26 1 52q46 78 104 128t134 46q44 -2 84 -31t78 -64t72 -63t66 -28q38 0 60 13t34 35t15 51t1 63q2 32 26 39t52 -3t52 -32t24 -46q-4 -78 -30 -129t-66 -81t-86 -40t-88 -4q-48 6 -87 32t-72 56t-62 54t-57 28 q-32 4 -56 -6t-41 -28t-30 -41t-25 -43q-10 -22 -32 -20t-41 19t-30 43zM185 363q-1 -95 22 -161t67 -72q72 -10 136 66t111 201t72 281t21 304q-110 0 -190 -61t-133 -154t-79 -201t-27 -203z" />
<glyph unicode="&#xe4;" horiz-adv-x="994" d="M36 373q0 101 23 205t69 202t118 175t169 122t221 43q18 22 51 24t63 -10t50 -31t16 -39q-14 -62 -30 -154t-24 -192t-7 -200t19 -177t58 -124t108 -41q22 -4 31 -28t6 -53t-20 -53t-47 -26q-78 10 -128 45t-81 83t-45 101t-20 101q-16 -90 -57 -162t-98 -119t-124 -68 t-135 -9q-60 10 -102 64t-63 137t-21 184zM164 1268q0 50 34 75t75 26t75 -21t34 -68q0 -48 -34 -68t-75 -19t-75 21t-34 54zM185 363q-1 -95 22 -161t67 -72q72 -10 136 66t111 201t72 281t21 304q-110 0 -190 -61t-133 -154t-79 -201t-27 -203zM610 1268q0 50 34 75t75 26 t75 -21t34 -68q0 -48 -34 -68t-75 -19t-75 21t-34 54z" />
<glyph unicode="&#xe5;" horiz-adv-x="994" d="M36 373q0 101 23 205t69 202t118 175t169 122t221 43q18 22 51 24t63 -10t50 -31t16 -39q-14 -62 -30 -154t-24 -192t-7 -200t19 -177t58 -124t108 -41q22 -4 31 -28t6 -53t-20 -53t-47 -26q-78 10 -128 45t-81 83t-45 101t-20 101q-16 -90 -57 -162t-98 -119t-124 -68 t-135 -9q-60 10 -102 64t-63 137t-21 184zM185 363q-1 -95 22 -161t67 -72q72 -10 136 66t111 201t72 281t21 304q-110 0 -190 -61t-133 -154t-79 -201t-27 -203zM324 1354q0 104 54 157t119 56t119 -45t54 -144q0 -66 -26 -106t-64 -59t-83 -17t-83 22t-64 54t-26 82z M426 1378q0 -30 23 -49t51 -20t51 18t23 61t-23 63t-51 19t-51 -25t-23 -67z" />
<glyph unicode="&#xe6;" horiz-adv-x="1276" d="M51 388q7 110 39 219t89 208t139 168t190 96t240 -5q50 22 112 10q94 -18 130 -70t30 -121t-44 -147t-91 -148t-112 -126t-105 -78q0 -54 7 -106t22 -93t39 -68t58 -31q68 -10 126 40t101 122t67 151t26 129q0 32 23 54t50 23t49 -20t22 -75q0 -52 -17 -117t-49 -131 t-76 -128t-98 -108t-117 -71t-129 -17q-84 10 -132 54t-74 114q-64 -88 -152 -129t-178 -25q-68 12 -112 73t-62 152t-11 201zM199 337q-1 -95 22 -161t67 -72q66 -10 127 55t107 177q-38 -18 -65 -14t-33 48q-4 44 12 79t80 63q2 42 9 97t20 116t33 121t50 110 q-110 0 -190 -61t-133 -154t-79 -201t-27 -203zM662 582q78 68 128 130t71 111t15 81t-40 40q-26 6 -53 -21t-51 -76t-43 -118t-27 -147z" />
<glyph unicode="&#xe7;" horiz-adv-x="908" d="M42 541q4 113 32 220t77 199t118 150t154 74t185 -30q32 -12 40 -42t0 -58t-27 -44t-39 -2q-78 34 -140 20t-108 -61t-76 -119t-46 -154t-17 -166t14 -156t43 -124t72 -68q56 -22 108 -10t97 47t83 87t65 109t43 115t18 106q2 26 26 32t51 -4t48 -31t19 -47 q-14 -116 -73 -234t-144 -205t-189 -124t-208 11q-82 38 -134 117t-74 179t-18 213zM334 -50l2 70q0 18 14 28t33 13t39 -2t32 -21v-80q72 10 122 -10t76 -56t26 -80t-26 -82t-81 -63t-137 -23q-22 2 -31 24t-7 49t11 48t21 19q66 -10 96 2t30 28t-28 27t-78 -3 q-34 -10 -55 3t-35 34t-19 43t-5 32z" />
<glyph unicode="&#xe8;" horiz-adv-x="878" d="M26 370q-4 44 12 79t80 63q2 46 11 110t25 132t42 133t63 113t87 72t116 12q96 -18 131 -70t29 -121t-44 -147t-91 -148t-112 -126t-105 -78q0 -54 7 -106t22 -93t39 -68t58 -31q68 -10 126 40t101 122t67 151t26 129q0 32 23 54t50 23t49 -20t22 -75q0 -52 -17 -117 t-49 -131t-76 -128t-98 -108t-117 -71t-129 -17q-70 8 -114 40t-71 83t-42 118t-23 147q-38 -18 -65 -14t-33 48zM264 582q78 68 128 130t71 111t15 81t-40 40q-26 6 -53 -21t-51 -76t-43 -118t-27 -147zM320 1382q-8 22 3 44t31 35t45 12t45 -27l82 -140q20 -40 8 -65 t-36 -35t-51 -6t-37 22z" />
<glyph unicode="&#xe9;" horiz-adv-x="878" d="M26 370q-4 44 12 79t80 63q2 46 11 110t25 132t42 133t63 113t87 72t116 12q96 -18 131 -70t29 -121t-44 -147t-91 -148t-112 -126t-105 -78q0 -54 7 -106t22 -93t39 -68t58 -31q68 -10 126 40t101 122t67 151t26 129q0 32 23 54t50 23t49 -20t22 -75q0 -52 -17 -117 t-49 -131t-76 -128t-98 -108t-117 -71t-129 -17q-70 8 -114 40t-71 83t-42 118t-23 147q-38 -18 -65 -14t-33 48zM264 582q78 68 128 130t71 111t15 81t-40 40q-26 6 -53 -21t-51 -76t-43 -118t-27 -147zM344 1241q-12 25 8 65l82 140q20 26 45 27t45 -12t31 -35t3 -44 l-90 -160q-10 -18 -37 -22t-51 6t-36 35z" />
<glyph unicode="&#xea;" horiz-adv-x="878" d="M26 370q-4 44 12 79t80 63q2 46 11 110t25 132t42 133t63 113t87 72t116 12q96 -18 131 -70t29 -121t-44 -147t-91 -148t-112 -126t-105 -78q0 -54 7 -106t22 -93t39 -68t58 -31q68 -10 126 40t101 122t67 151t26 129q0 32 23 54t50 23t49 -20t22 -75q0 -52 -17 -117 t-49 -131t-76 -128t-98 -108t-117 -71t-129 -17q-70 8 -114 40t-71 83t-42 118t-23 147q-38 -18 -65 -14t-33 48zM139 1210q-11 24 3 40l150 244q10 26 32 43t50 21t57 -9t53 -47l130 -226q20 -40 9 -67t-33 -40t-48 -11t-36 20l-116 218l-120 -218q-22 -28 -49 -26t-49 18 t-33 40zM264 582q78 68 128 130t71 111t15 81t-40 40q-26 6 -53 -21t-51 -76t-43 -118t-27 -147z" />
<glyph unicode="&#xeb;" horiz-adv-x="878" d="M26 370q-4 44 12 79t80 63q2 46 11 110t25 132t42 133t63 113t87 72t116 12q96 -18 131 -70t29 -121t-44 -147t-91 -148t-112 -126t-105 -78q0 -54 7 -106t22 -93t39 -68t58 -31q68 -10 126 40t101 122t67 151t26 129q0 32 23 54t50 23t49 -20t22 -75q0 -52 -17 -117 t-49 -131t-76 -128t-98 -108t-117 -71t-129 -17q-70 8 -114 40t-71 83t-42 118t-23 147q-38 -18 -65 -14t-33 48zM106 1268q0 50 34 75t75 26t75 -21t34 -68q0 -48 -34 -68t-75 -19t-75 21t-34 54zM264 582q78 68 128 130t71 111t15 81t-40 40q-26 6 -53 -21t-51 -76 t-43 -118t-27 -147zM552 1268q0 50 34 75t75 26t75 -21t34 -68q0 -48 -34 -68t-75 -19t-75 21t-34 54z" />
<glyph unicode="&#xec;" horiz-adv-x="380" d="M72 1042q2 30 27 42t55 9t54 -21t24 -44q22 -242 47 -481t59 -475q2 -18 -20 -37t-51 -28t-55 -5t-32 30q-10 44 -21 134t-23 198t-24 224t-21 214t-14 164t-5 76zM74 1382q-8 22 3 44t31 35t45 12t45 -27l82 -140q20 -40 8 -65t-36 -35t-51 -6t-37 22z" />
<glyph unicode="&#xed;" horiz-adv-x="380" d="M72 1042q2 30 27 42t55 9t54 -21t24 -44q22 -242 47 -481t59 -475q2 -18 -20 -37t-51 -28t-55 -5t-32 30q-10 44 -21 134t-23 198t-24 224t-21 214t-14 164t-5 76zM98 1241q-12 25 8 65l82 140q20 26 45 27t45 -12t31 -35t3 -44l-90 -160q-10 -18 -37 -22t-51 6t-36 35z " />
<glyph unicode="&#xee;" horiz-adv-x="380" d="M-55 1256q-11 24 3 40l150 244q10 26 32 43t50 21t57 -9t53 -47l130 -226q20 -40 9 -67t-33 -40t-48 -11t-36 20l-116 218l-120 -218q-22 -28 -49 -26t-49 18t-33 40zM72 1042q2 30 27 42t55 9t54 -21t24 -44q22 -242 47 -481t59 -475q2 -18 -20 -37t-51 -28t-55 -5 t-32 30q-10 44 -21 134t-23 198t-24 224t-21 214t-14 164t-5 76z" />
<glyph unicode="&#xef;" horiz-adv-x="380" d="M-140 1268q0 50 34 75t75 26t75 -21t34 -68q0 -48 -34 -68t-75 -19t-75 21t-34 54zM72 1042q2 30 27 42t55 9t54 -21t24 -44q22 -242 47 -481t59 -475q2 -18 -20 -37t-51 -28t-55 -5t-32 30q-10 44 -21 134t-23 198t-24 224t-21 214t-14 164t-5 76zM306 1268q0 50 34 75 t75 26t75 -21t34 -68q0 -48 -34 -68t-75 -19t-75 21t-34 54z" />
<glyph unicode="&#xf1;" horiz-adv-x="1290" d="M36 946q-14 42 5 71t49 40t58 5t34 -32q12 -48 26 -137t28 -181t27 -165t23 -89q10 28 24 83t37 119t56 131t81 119t111 83t147 25q90 -6 145 -62t91 -137t57 -174t42 -175t47 -141t72 -71q34 -10 43 -43t-1 -68t-35 -60t-59 -15q-68 18 -110 84t-71 153t-51 183t-49 175 t-67 129t-104 44q-44 -4 -84 -46t-76 -107t-66 -146t-54 -162t-42 -155t-28 -124q-6 -28 -32 -45t-54 -20t-51 8t-23 39zM257 1320q-11 26 1 52q46 78 104 128t134 46q44 -2 84 -31t78 -64t72 -63t66 -28q38 0 60 13t34 35t15 51t1 63q2 32 26 39t52 -3t52 -32t24 -46 q-4 -78 -30 -129t-66 -81t-86 -40t-88 -4q-48 6 -87 32t-72 56t-62 54t-57 28q-32 4 -56 -6t-41 -28t-30 -41t-25 -43q-10 -22 -32 -20t-41 19t-30 43z" />
<glyph unicode="&#xf2;" horiz-adv-x="774" d="M41 579q1 143 41 265t119 202t201 78q74 0 135 -49t105 -128t69 -180t28 -206t-16 -204t-64 -176t-117 -123t-174 -42q-108 4 -181 88t-110 208t-36 267zM186 577q0 -101 21 -189t62 -148t103 -64q72 -4 122 53t74 146t24 194t-25 196t-75 150t-126 59q-60 -2 -101 -62 t-60 -147t-19 -188zM268 1382q-8 22 3 44t31 35t45 12t45 -27l82 -140q20 -40 8 -65t-36 -35t-51 -6t-37 22z" />
<glyph unicode="&#xf3;" horiz-adv-x="774" d="M41 579q1 143 41 265t119 202t201 78q74 0 135 -49t105 -128t69 -180t28 -206t-16 -204t-64 -176t-117 -123t-174 -42q-108 4 -181 88t-110 208t-36 267zM186 577q0 -101 21 -189t62 -148t103 -64q72 -4 122 53t74 146t24 194t-25 196t-75 150t-126 59q-60 -2 -101 -62 t-60 -147t-19 -188zM292 1241q-12 25 8 65l82 140q20 26 45 27t45 -12t31 -35t3 -44l-90 -160q-10 -18 -37 -22t-51 6t-36 35z" />
<glyph unicode="&#xf4;" horiz-adv-x="774" d="M41 579q1 143 41 265t119 202t201 78q74 0 135 -49t105 -128t69 -180t28 -206t-16 -204t-64 -176t-117 -123t-174 -42q-108 4 -181 88t-110 208t-36 267zM139 1256q-11 24 3 40l150 244q10 26 32 43t50 21t57 -9t53 -47l130 -226q20 -40 9 -67t-33 -40t-48 -11t-36 20 l-116 218l-120 -218q-22 -28 -49 -26t-49 18t-33 40zM186 577q0 -101 21 -189t62 -148t103 -64q72 -4 122 53t74 146t24 194t-25 196t-75 150t-126 59q-60 -2 -101 -62t-60 -147t-19 -188z" />
<glyph unicode="&#xf5;" horiz-adv-x="774" d="M3 1320q-11 26 1 52q46 78 104 128t134 46q44 -2 84 -31t78 -64t72 -63t66 -28q38 0 60 13t34 35t15 51t1 63q2 32 26 39t52 -3t52 -32t24 -46q-4 -78 -30 -129t-66 -81t-86 -40t-88 -4q-48 6 -87 32t-72 56t-62 54t-57 28q-32 4 -56 -6t-41 -28t-30 -41t-25 -43 q-10 -22 -32 -20t-41 19t-30 43zM41 579q1 143 41 265t119 202t201 78q74 0 135 -49t105 -128t69 -180t28 -206t-16 -204t-64 -176t-117 -123t-174 -42q-108 4 -181 88t-110 208t-36 267zM186 577q0 -101 21 -189t62 -148t103 -64q72 -4 122 53t74 146t24 194t-25 196 t-75 150t-126 59q-60 -2 -101 -62t-60 -147t-19 -188z" />
<glyph unicode="&#xf6;" horiz-adv-x="774" d="M41 579q1 143 41 265t119 202t201 78q74 0 135 -49t105 -128t69 -180t28 -206t-16 -204t-64 -176t-117 -123t-174 -42q-108 4 -181 88t-110 208t-36 267zM58 1268q0 50 34 75t75 26t75 -21t34 -68q0 -48 -34 -68t-75 -19t-75 21t-34 54zM186 577q0 -101 21 -189t62 -148 t103 -64q72 -4 122 53t74 146t24 194t-25 196t-75 150t-126 59q-60 -2 -101 -62t-60 -147t-19 -188zM504 1268q0 50 34 75t75 26t75 -21t34 -68q0 -48 -34 -68t-75 -19t-75 21t-34 54z" />
<glyph unicode="&#xf7;" horiz-adv-x="768" d="M76 671q-2 23 8 46t34 29l524 44q28 -4 39 -23t11 -41t-10 -42t-24 -24l-536 -46q-20 -2 -32 16t-14 41zM256 944q0 50 34 75t75 26t75 -21t34 -68q0 -48 -34 -68t-75 -19t-75 21t-34 54zM298 420q0 50 34 75t75 26t75 -21t34 -68q0 -48 -34 -68t-75 -19t-75 21t-34 54z " />
<glyph unicode="&#xf8;" horiz-adv-x="774" d="M41 579q1 143 41 265t119 202t201 78q74 0 135 -49t105 -128t69 -180t28 -206t-16 -204t-64 -176t-117 -123t-174 -42q-108 4 -181 88t-110 208t-36 267zM60 33q-12 25 2 45l526 1068q16 28 44 33t52 -7t37 -35t-1 -53l-528 -1104q-16 -20 -44 -14t-52 24t-36 43z M186 577q0 -101 21 -189t62 -148t103 -64q72 -4 122 53t74 146t24 194t-25 196t-75 150t-126 59q-60 -2 -101 -62t-60 -147t-19 -188z" />
<glyph unicode="&#xf9;" horiz-adv-x="1202" d="M75 838q3 96 9 144q10 34 35 51t51 17t48 -15t26 -45q-4 -50 -8 -134t-4 -178t6 -190t24 -173t50 -125t84 -46q32 2 61 51t55 126t49 173t40 190t29 178t18 136q8 54 38 78t63 27t60 -10t29 -33q8 -68 15 -157t18 -182t28 -182t45 -157t68 -107t96 -31q28 -4 36 -32 t1 -61t-27 -59t-48 -22q-84 20 -142 77t-94 132t-55 159t-27 160t-9 134t1 80q-6 -78 -18 -168t-31 -180t-48 -174t-68 -150t-92 -109t-121 -49q-82 -10 -136 47t-87 152t-48 214t-19 233t-1 210zM330 1348q-8 22 3 44t31 35t45 12t45 -27l82 -140q20 -40 8 -65t-36 -35 t-51 -6t-37 22z" />
<glyph unicode="&#xfa;" horiz-adv-x="1202" d="M75 838q3 96 9 144q10 34 35 51t51 17t48 -15t26 -45q-4 -50 -8 -134t-4 -178t6 -190t24 -173t50 -125t84 -46q32 2 61 51t55 126t49 173t40 190t29 178t18 136q8 54 38 78t63 27t60 -10t29 -33q8 -68 15 -157t18 -182t28 -182t45 -157t68 -107t96 -31q28 -4 36 -32 t1 -61t-27 -59t-48 -22q-84 20 -142 77t-94 132t-55 159t-27 160t-9 134t1 80q-6 -78 -18 -168t-31 -180t-48 -174t-68 -150t-92 -109t-121 -49q-82 -10 -136 47t-87 152t-48 214t-19 233t-1 210zM374 1223q-12 25 8 65l82 140q20 26 45 27t45 -12t31 -35t3 -44l-90 -160 q-10 -18 -37 -22t-51 6t-36 35z" />
<glyph unicode="&#xfb;" horiz-adv-x="1202" d="M75 838q3 96 9 144q10 34 35 51t51 17t48 -15t26 -45q-4 -50 -8 -134t-4 -178t6 -190t24 -173t50 -125t84 -46q32 2 61 51t55 126t49 173t40 190t29 178t18 136q8 54 38 78t63 27t60 -10t29 -33q8 -68 15 -157t18 -182t28 -182t45 -157t68 -107t96 -31q28 -4 36 -32 t1 -61t-27 -59t-48 -22q-84 20 -142 77t-94 132t-55 159t-27 160t-9 134t1 80q-6 -78 -18 -168t-31 -180t-48 -174t-68 -150t-92 -109t-121 -49q-82 -10 -136 47t-87 152t-48 214t-19 233t-1 210zM201 1234q-11 24 3 40l150 244q10 26 32 43t50 21t57 -9t53 -47l130 -226 q20 -40 9 -67t-33 -40t-48 -11t-36 20l-116 218l-120 -218q-22 -28 -49 -26t-49 18t-33 40z" />
<glyph unicode="&#xfc;" horiz-adv-x="1202" d="M75 838q3 96 9 144q10 34 35 51t51 17t48 -15t26 -45q-4 -50 -8 -134t-4 -178t6 -190t24 -173t50 -125t84 -46q32 2 61 51t55 126t49 173t40 190t29 178t18 136q8 54 38 78t63 27t60 -10t29 -33q8 -68 15 -157t18 -182t28 -182t45 -157t68 -107t96 -31q28 -4 36 -32 t1 -61t-27 -59t-48 -22q-84 20 -142 77t-94 132t-55 159t-27 160t-9 134t1 80q-6 -78 -18 -168t-31 -180t-48 -174t-68 -150t-92 -109t-121 -49q-82 -10 -136 47t-87 152t-48 214t-19 233t-1 210zM124 1280q0 50 34 75t75 26t75 -21t34 -68q0 -48 -34 -68t-75 -19t-75 21 t-34 54zM570 1280q0 50 34 75t75 26t75 -21t34 -68q0 -48 -34 -68t-75 -19t-75 21t-34 54z" />
<glyph unicode="&#xfd;" horiz-adv-x="1004" d="M30 730q0 42 20 60t45 21t49 -5t30 -16q28 -48 86 -122t135 -150t165 -141t176 -93l66 790q4 38 30 53t56 8t53 -32t21 -63q-20 -156 -35 -292t-27 -260t-19 -244t-13 -246t-11 -264t-9 -298q-2 -16 -26 -30t-52 -18t-52 5t-26 39l30 664q-42 8 -105 44t-134 90t-145 120 t-137 133t-109 132t-62 115zM406 1241q-12 25 8 65l82 140q20 26 45 27t45 -12t31 -35t3 -44l-90 -160q-10 -18 -37 -22t-51 6t-36 35z" />
<glyph unicode="&#xfe;" horiz-adv-x="1036" d="M52 1626q10 22 30 35t43 15t47 -9t40 -35q4 -64 9 -158t13 -196t18 -202t22 -178q14 86 46 176t77 168t98 137t111 87q122 58 212 24t136 -121t45 -205t-61 -228q-42 -76 -112 -158t-152 -154t-168 -127t-160 -75l26 -380q6 -16 -20 -31t-58 -20t-61 2t-29 35 q-6 180 -22 377t-38 402t-46 412t-46 407zM346 596q78 28 153 80t139 112t111 123t69 115q26 58 30 125t-17 116t-67 65t-120 -26q-36 -20 -72 -70t-69 -116t-62 -141t-50 -147t-33 -135t-12 -101z" />
<glyph unicode="&#xff;" horiz-adv-x="1004" d="M30 730q0 42 20 60t45 21t49 -5t30 -16q28 -48 86 -122t135 -150t165 -141t176 -93l66 790q4 38 30 53t56 8t53 -32t21 -63q-20 -156 -35 -292t-27 -260t-19 -244t-13 -246t-11 -264t-9 -298q-2 -16 -26 -30t-52 -18t-52 5t-26 39l30 664q-42 8 -105 44t-134 90t-145 120 t-137 133t-109 132t-62 115zM170 1268q0 50 34 75t75 26t75 -21t34 -68q0 -48 -34 -68t-75 -19t-75 21t-34 54zM616 1268q0 50 34 75t75 26t75 -21t34 -68q0 -48 -34 -68t-75 -19t-75 21t-34 54z" />
<glyph unicode="&#x152;" horiz-adv-x="1856" d="M47 808q1 128 23 245t65 218t107 169q20 14 42 12t38 -16t23 -35t-1 -43q-48 -42 -81 -122t-52 -180t-22 -213t10 -223t42 -210t75 -173t108 -112t142 -27q78 10 133 79t89 171t48 226t8 248q-4 96 -21 197t-48 193t-77 168t-110 123t-146 56t-184 -31q-12 0 -20 21 t-10 46t3 46t21 23q100 24 184 20t154 -32t126 -77t98 -113q-4 64 41 91t119 -15q262 102 428 165t254 103q34 16 62 2t41 -39t10 -52t-33 -37q-116 -38 -240 -87t-233 -93t-190 -77t-107 -41v-85v-98t2 -104t6 -103q2 -14 3 -28t3 -30q6 -54 18 -92q36 2 86 40t98 86t89 94 t61 62q18 16 41 13t40 -17t24 -35t-5 -43q-50 -74 -109 -135t-116 -108t-108 -80t-83 -53q4 -16 8 -54t10 -86t15 -101t23 -99t32 -78t44 -40q48 -14 102 2t109 52t110 88t103 109t89 114t69 105q18 18 38 13t37 -23t24 -43t-1 -49q-26 -54 -73 -116t-106 -122t-126 -115 t-134 -98t-128 -70t-107 -31q-42 -4 -76 18t-62 63t-50 99t-40 128q-24 -78 -60 -145t-85 -117t-111 -79t-138 -31q-96 -2 -174 45t-136 129t-98 192t-59 232t-18 250z" />
<glyph unicode="&#x153;" horiz-adv-x="1268" d="M31 573q1 143 41 265t119 202t201 78q64 -2 118 -38t96 -98q40 76 100 122t146 30q94 -18 130 -70t30 -121t-44 -147t-91 -148t-112 -126t-105 -78q0 -54 7 -106t22 -93t39 -68t58 -31q68 -10 126 40t101 122t67 151t26 129q0 32 23 54t50 23t49 -20t22 -75 q0 -52 -17 -117t-49 -131t-76 -128t-98 -108t-117 -71t-129 -17q-70 10 -113 39t-71 79q-36 -52 -90 -80t-132 -26q-108 4 -181 88t-110 208t-36 267zM176 570q0 -102 21 -189t62 -147t103 -64q54 -4 95 29t69 91q-6 44 -12 96q-38 -18 -65 -14t-33 48q-4 44 12 79t80 63 q2 46 11 110t25 132q-28 72 -75 119t-113 45q-60 -2 -101 -62t-60 -147t-19 -189zM654 632q78 68 128 130t71 111t15 81t-40 40q-26 6 -53 -21t-51 -76t-43 -118t-27 -147z" />
<glyph unicode="&#x178;" horiz-adv-x="1184" d="M30 1448q-12 38 3 66t38 44t45 19t28 -7q66 -80 141 -177t152 -193t153 -184t144 -150l270 830q14 42 45 53t60 -1t47 -42t6 -70q-92 -246 -160 -445t-127 -389t-116 -394t-125 -458q-6 -16 -35 -27t-59 -11t-53 13t-17 45l202 698q-144 188 -310 384t-332 396zM260 1814 q0 50 34 75t75 26t75 -21t34 -68q0 -48 -34 -68t-75 -19t-75 21t-34 54zM706 1814q0 50 34 75t75 26t75 -21t34 -68q0 -48 -34 -68t-75 -19t-75 21t-34 54z" />
<glyph unicode="&#x2c6;" horiz-adv-x="636" d="M73 1256q-11 24 3 40l150 244q10 26 32 43t50 21t57 -9t53 -47l130 -226q20 -40 9 -67t-33 -40t-48 -11t-36 20l-116 218l-120 -218q-22 -28 -49 -26t-49 18t-33 40z" />
<glyph unicode="&#x2dc;" horiz-adv-x="996" d="M93 1320q-11 26 1 52q46 78 104 128t134 46q44 -2 84 -31t78 -64t72 -63t66 -28q38 0 60 13t34 35t15 51t1 63q2 32 26 39t52 -3t52 -32t24 -46q-4 -78 -30 -129t-66 -81t-86 -40t-88 -4q-48 6 -87 32t-72 56t-62 54t-57 28q-32 4 -56 -6t-41 -28t-30 -41t-25 -43 q-10 -22 -32 -20t-41 19t-30 43z" />
<glyph unicode="&#x2000;" horiz-adv-x="1075" />
<glyph unicode="&#x2001;" horiz-adv-x="2150" />
<glyph unicode="&#x2002;" horiz-adv-x="1075" />
<glyph unicode="&#x2003;" horiz-adv-x="2150" />
<glyph unicode="&#x2004;" horiz-adv-x="716" />
<glyph unicode="&#x2005;" horiz-adv-x="537" />
<glyph unicode="&#x2006;" horiz-adv-x="358" />
<glyph unicode="&#x2007;" horiz-adv-x="358" />
<glyph unicode="&#x2008;" horiz-adv-x="268" />
<glyph unicode="&#x2009;" horiz-adv-x="430" />
<glyph unicode="&#x200a;" horiz-adv-x="119" />
<glyph unicode="&#x2010;" horiz-adv-x="768" d="M76 671q-2 23 8 46t34 29l524 44q28 -4 39 -23t11 -41t-10 -42t-24 -24l-536 -46q-20 -2 -32 16t-14 41z" />
<glyph unicode="&#x2011;" horiz-adv-x="768" d="M76 671q-2 23 8 46t34 29l524 44q28 -4 39 -23t11 -41t-10 -42t-24 -24l-536 -46q-20 -2 -32 16t-14 41z" />
<glyph unicode="&#x2012;" horiz-adv-x="768" d="M76 671q-2 23 8 46t34 29l524 44q28 -4 39 -23t11 -41t-10 -42t-24 -24l-536 -46q-20 -2 -32 16t-14 41z" />
<glyph unicode="&#x2013;" horiz-adv-x="768" d="M76 671q-2 23 8 46t34 29l524 44q28 -4 39 -23t11 -41t-10 -42t-24 -24l-536 -46q-20 -2 -32 16t-14 41z" />
<glyph unicode="&#x2014;" horiz-adv-x="1210" d="M76 671q-2 23 8 46t34 29l938 62q28 -4 39 -23t11 -41t-10 -42t-24 -24l-950 -64q-20 -2 -32 16t-14 41z" />
<glyph unicode="&#x2018;" horiz-adv-x="312" d="M74 1270q-2 18 15 34t40 21t46 -4t35 -41q0 -6 2 -19t7 -42t12 -79t17 -130q4 -34 -15 -52t-45 -21t-49 8t-25 35q-4 40 -9 74t-10 67t-10 69t-11 80z" />
<glyph unicode="&#x2019;" horiz-adv-x="358" d="M82 1010q6 44 11 80t10 69t10 67t9 74q2 24 25 35t49 8t45 -21t15 -52q-10 -80 -17 -130t-12 -79t-7 -42t-2 -19q-12 -32 -35 -41t-46 -4t-40 21t-15 34z" />
<glyph unicode="&#x201a;" horiz-adv-x="358" d="M78 -22q6 44 11 80t10 69t10 67t9 74q2 24 25 35t49 8t45 -21t15 -52q-10 -80 -17 -130t-12 -79t-7 -42t-2 -19q-12 -32 -35 -41t-46 -4t-40 21t-15 34z" />
<glyph unicode="&#x201c;" horiz-adv-x="620" d="M82 1270q-4 34 15 52t44 21t48 -8t27 -35q4 -40 9 -74t10 -67t10 -69t11 -80q2 -18 -15 -34t-40 -21t-46 4t-35 41q0 6 -2 19t-7 42t-13 79t-16 130zM354 1314q-4 34 15 52t44 21t48 -8t27 -35q4 -40 9 -74t10 -67t10 -69t11 -80q2 -18 -15 -34t-40 -21t-46 4t-35 41 q0 6 -2 19t-7 42t-13 79t-16 130z" />
<glyph unicode="&#x201d;" horiz-adv-x="620" d="M82 1054q6 44 11 80t10 69t10 67t9 74q2 24 25 35t49 8t45 -21t15 -52q-10 -80 -17 -130t-12 -79t-7 -42t-2 -19q-12 -32 -35 -41t-46 -4t-40 21t-15 34zM354 1010q6 44 11 80t10 69t10 67t9 74q2 24 25 35t49 8t45 -21t15 -52q-10 -80 -17 -130t-12 -79t-7 -42t-2 -19 q-12 -32 -35 -41t-46 -4t-40 21t-15 34z" />
<glyph unicode="&#x201e;" horiz-adv-x="620" d="M72 6q6 44 11 80t10 69t10 67t9 74q2 24 25 35t49 8t45 -21t15 -52q-10 -80 -17 -130t-12 -79t-7 -42t-2 -19q-12 -32 -35 -41t-46 -4t-40 21t-15 34zM344 -38q6 44 11 80t10 69t10 67t9 74q2 24 25 35t49 8t45 -21t15 -52q-10 -80 -17 -130t-12 -79t-7 -42t-2 -19 q-12 -32 -35 -41t-46 -4t-40 21t-15 34z" />
<glyph unicode="&#x2022;" horiz-adv-x="1824" d="M96 1327q-18 135 20 236t154 151q108 46 194 -4t160 -166t143 -285t145 -359q50 34 119 88t146 110t159 104t157 68t141 3t112 -91q40 -66 21 -166t-80 -216t-154 -238t-198 -232t-213 -198t-198 -136q-66 -34 -125 -25t-97 69q-90 154 -189 324t-186 339t-150 329 t-81 295zM240 1414q-10 -86 17 -198t85 -246t137 -277t171 -288t186 -281q78 42 174 118t191 170t179 196t142 196t78 170t-12 116q-22 26 -67 16t-104 -42t-125 -80t-129 -96t-118 -90t-89 -62l64 -198q6 -28 -6 -56t-35 -43t-51 -10t-52 41q-24 86 -60 211t-81 259 t-97 261t-107 218t-112 130t-111 -3q-58 -46 -68 -132z" />
<glyph unicode="&#x2026;" horiz-adv-x="1338" d="M94 74q0 50 34 75t75 26t75 -21t34 -68q0 -48 -34 -68t-75 -19t-75 21t-34 54zM540 74q0 50 34 75t75 26t75 -21t34 -68q0 -48 -34 -68t-75 -19t-75 21t-34 54zM986 74q0 50 34 75t75 26t75 -21t34 -68q0 -48 -34 -68t-75 -19t-75 21t-34 54z" />
<glyph unicode="&#x202f;" horiz-adv-x="430" />
<glyph unicode="&#x2039;" horiz-adv-x="946" d="M101 639q-7 27 2 58t41 59q62 50 102 81t84 66t106 84t168 135q38 24 66 19t43 -24t15 -42t-18 -35l-448 -378l540 -220q30 -18 27 -43t-21 -46t-44 -32t-44 1l-546 244q-28 6 -47 26t-26 47z" />
<glyph unicode="&#x203a;" horiz-adv-x="866" d="M53 399q-3 25 27 43l540 220l-448 378q-18 12 -18 35t15 42t43 24t66 -19q106 -86 168 -135t106 -84t84 -66t102 -81q32 -28 41 -59t2 -58t-27 -47t-46 -26l-546 -244q-18 -12 -44 -1t-44 32t-21 46z" />
<glyph unicode="&#x205f;" horiz-adv-x="537" />
<glyph unicode="&#x20ac;" horiz-adv-x="1166" d="M54 779q-2 23 8 46t34 29l100 8q-6 158 11 309t59 267t108 185t158 67q36 -2 69 -25t60 -60t48 -83t35 -92t22 -89t8 -73q0 -28 -20 -51t-46 -35t-48 -7t-24 33q-18 168 -46 245t-44 87q-50 14 -89 -37t-64 -145t-37 -221t-8 -263l272 24q28 -4 39 -23t11 -41t-10 -42 t-24 -24l-282 -24q4 -32 7 -63t7 -61l268 24q28 -4 39 -23t11 -41t-10 -42t-24 -24l-260 -22q18 -80 42 -149t56 -122t72 -87t88 -42q60 -10 123 18t112 94t79 168t28 238q0 22 22 30t48 4t48 -20t22 -44q-2 -152 -44 -275t-113 -207t-164 -124t-197 -26q-68 8 -125 53 t-103 115t-82 163t-60 199l-128 -10q-20 -2 -32 16t-14 41t8 46t34 29l108 8q-4 30 -8 61t-8 61l-104 -8q-20 -2 -32 16t-14 41z" />
<glyph unicode="&#xe000;" horiz-adv-x="1130" d="M0 0v1130h1130v-1130h-1130z" />
</font>
</defs>
</svg>
